<svg xmlns="http://www.w3.org/2000/svg" xmlns:xlink="http://www.w3.org/1999/xlink" width="600" zoomAndPan="magnify" viewBox="0 0 450 299.999988" height="400" preserveAspectRatio="xMidYMid meet" version="1.0"><defs><g/></defs><g fill="#016c78" fill-opacity="1"><g transform="translate(6.622767, 195.854189)"><g><path d="M 38.0625 0 L 15.734375 0 C 13.835938 0 12.460938 -0.421875 11.609375 -1.265625 C 10.765625 -2.117188 10.34375 -3.492188 10.34375 -5.390625 L 10.34375 -102.5 C 10.34375 -104.394531 10.765625 -105.765625 11.609375 -106.609375 C 12.460938 -107.460938 13.835938 -107.890625 15.734375 -107.890625 L 39.859375 -107.890625 C 41.453125 -107.890625 42.773438 -107.539062 43.828125 -106.84375 C 44.878906 -106.144531 45.851562 -104.992188 46.75 -103.390625 L 60.234375 -78.96875 C 60.734375 -78.070312 61.15625 -77.421875 61.5 -77.015625 C 61.851562 -76.617188 62.332031 -76.421875 62.9375 -76.421875 L 64.28125 -76.421875 C 64.882812 -76.421875 65.359375 -76.617188 65.703125 -77.015625 C 66.054688 -77.421875 66.484375 -78.070312 66.984375 -78.96875 L 80.3125 -103.390625 C 81.21875 -104.992188 82.191406 -106.144531 83.234375 -106.84375 C 84.285156 -107.539062 85.609375 -107.890625 87.203125 -107.890625 L 111.484375 -107.890625 C 113.378906 -107.890625 114.75 -107.460938 115.59375 -106.609375 C 116.445312 -105.765625 116.875 -104.394531 116.875 -102.5 L 116.875 -5.390625 C 116.875 -3.492188 116.445312 -2.117188 115.59375 -1.265625 C 114.75 -0.421875 113.378906 0 111.484375 0 L 88.40625 0 C 86.507812 0 85.132812 -0.421875 84.28125 -1.265625 C 83.4375 -2.117188 83.015625 -3.492188 83.015625 -5.390625 L 83.015625 -58.140625 L 74.171875 -41.8125 C 73.273438 -40.113281 72.203125 -38.890625 70.953125 -38.140625 C 69.703125 -37.390625 68.128906 -37.015625 66.234375 -37.015625 L 60.234375 -37.015625 C 58.335938 -37.015625 56.765625 -37.390625 55.515625 -38.140625 C 54.265625 -38.890625 53.191406 -40.113281 52.296875 -41.8125 L 43.453125 -58.140625 L 43.453125 -5.390625 C 43.453125 -3.492188 43.023438 -2.117188 42.171875 -1.265625 C 41.328125 -0.421875 39.957031 0 38.0625 0 Z M 38.0625 0 "/></g></g></g><g fill="#016c78" fill-opacity="1"><g transform="translate(133.828885, 195.854189)"><g><path d="M 60.390625 0 L 13.03125 0 C 11.132812 0 9.757812 -0.421875 8.90625 -1.265625 C 8.0625 -2.117188 7.640625 -3.492188 7.640625 -5.390625 L 7.640625 -22.921875 C 7.640625 -24.816406 8.0625 -26.191406 8.90625 -27.046875 C 9.757812 -27.898438 11.132812 -28.328125 13.03125 -28.328125 L 53.34375 -28.328125 C 54.644531 -28.328125 55.617188 -28.75 56.265625 -29.59375 C 56.910156 -30.445312 57.234375 -31.472656 57.234375 -32.671875 C 57.234375 -34.367188 56.910156 -35.613281 56.265625 -36.40625 C 55.617188 -37.207031 54.644531 -37.660156 53.34375 -37.765625 L 30.875 -40.90625 C 23.875 -41.90625 18.25 -44.203125 14 -47.796875 C 9.757812 -51.390625 7.640625 -57.382812 7.640625 -65.78125 L 7.640625 -81.515625 C 7.640625 -90.003906 10.382812 -96.519531 15.875 -101.0625 C 21.375 -105.613281 28.96875 -107.890625 38.65625 -107.890625 L 80.609375 -107.890625 C 82.515625 -107.890625 83.890625 -107.460938 84.734375 -106.609375 C 85.585938 -105.765625 86.015625 -104.394531 86.015625 -102.5 L 86.015625 -84.65625 C 86.015625 -82.757812 85.585938 -81.382812 84.734375 -80.53125 C 83.890625 -79.6875 82.515625 -79.265625 80.609375 -79.265625 L 45.703125 -79.265625 C 44.398438 -79.265625 43.398438 -78.835938 42.703125 -77.984375 C 42.003906 -77.140625 41.65625 -76.066406 41.65625 -74.765625 C 41.65625 -73.472656 42.003906 -72.375 42.703125 -71.46875 C 43.398438 -70.570312 44.398438 -70.078125 45.703125 -69.984375 L 68.03125 -66.984375 C 75.019531 -65.984375 80.660156 -63.679688 84.953125 -60.078125 C 89.253906 -56.484375 91.40625 -50.492188 91.40625 -42.109375 L 91.40625 -26.375 C 91.40625 -17.882812 88.628906 -11.363281 83.078125 -6.8125 C 77.535156 -2.269531 69.972656 0 60.390625 0 Z M 60.390625 0 "/></g></g></g><path stroke-linecap="butt" transform="matrix(1.112689, 0, 0, 1.112689, 0.000009, 31.229521)" fill="none" stroke-linejoin="miter" d="M 34.193606 141.999137 L 14.137331 141.999137 C 12.42765 141.999137 11.188395 141.616477 10.423076 140.847647 C 9.678821 140.082328 9.303183 138.853605 9.303183 137.168499 L 9.303183 49.872975 C 9.303183 48.187868 9.678821 46.959145 10.423076 46.193826 C 11.188395 45.424996 12.42765 45.042337 14.137331 45.042337 L 35.836584 45.042337 C 37.261903 45.042337 38.444988 45.358294 39.38935 45.99372 C 40.330201 46.608081 41.207861 47.640209 42.018818 49.086592 L 54.151583 71.014037 C 54.590413 71.824994 54.96254 72.418292 55.267966 72.790419 C 55.597966 73.141483 56.026264 73.317015 56.549349 73.317015 L 57.76754 73.317015 C 58.315199 73.317015 58.743497 73.141483 59.048923 72.790419 C 59.357859 72.418292 59.740519 71.824994 60.200412 71.014037 L 72.168177 49.086592 C 72.979134 47.640209 73.856794 46.608081 74.797645 45.99372 C 75.742006 45.358294 76.935623 45.042337 78.382006 45.042337 L 100.179557 45.042337 C 101.889238 45.042337 103.128493 45.424996 103.897323 46.193826 C 104.662642 46.959145 105.045302 48.187868 105.045302 49.872975 L 105.045302 137.168499 C 105.045302 138.853605 104.662642 140.082328 103.897323 140.847647 C 103.128493 141.616477 101.889238 141.999137 100.179557 141.999137 L 79.466793 141.999137 C 77.757113 141.999137 76.517857 141.616477 75.752538 140.847647 C 74.983709 140.082328 74.601049 138.853605 74.601049 137.168499 L 74.601049 89.757333 L 66.677539 104.421268 C 65.866582 105.955417 64.890624 107.061267 63.749667 107.742331 C 62.633284 108.398821 61.218497 108.72531 59.508816 108.72531 L 54.151583 108.72531 C 52.441902 108.72531 51.016583 108.398821 49.875626 107.742331 C 48.759243 107.061267 47.804349 105.955417 47.014456 104.421268 L 39.05935 89.757333 L 39.05935 137.168499 C 39.05935 138.853605 38.676691 140.082328 37.907861 140.847647 C 37.142542 141.616477 35.903287 141.999137 34.193606 141.999137 Z M 168.605402 141.999137 L 126.028385 141.999137 C 124.339768 141.999137 123.111045 141.616477 122.345726 140.847647 C 121.576896 140.082328 121.194236 138.853605 121.194236 137.168499 L 121.194236 121.38467 C 121.194236 119.67499 121.576896 118.449777 122.345726 117.702011 C 123.111045 116.936692 124.339768 116.550522 126.028385 116.550522 L 162.258169 116.550522 C 163.42019 116.550522 164.29785 116.167862 164.891147 115.402543 C 165.480935 114.633714 165.779339 113.713926 165.779339 112.639671 C 165.779339 111.105522 165.480935 109.985629 164.891147 109.287012 C 164.29785 108.563821 163.42019 108.156587 162.258169 108.068821 L 142.072001 105.242757 C 135.780937 104.344034 130.729129 102.283289 126.916576 99.060524 C 123.100513 95.816694 121.194236 90.424354 121.194236 82.883504 L 121.194236 68.746165 C 121.194236 61.117548 123.662215 55.265315 128.591151 51.189464 C 133.523597 47.092549 140.351788 45.042337 149.075723 45.042337 L 186.786997 45.042337 C 188.475613 45.042337 189.700826 45.424996 190.469656 46.193826 C 191.234975 46.959145 191.621145 48.187868 191.621145 49.872975 L 191.621145 65.920101 C 191.621145 67.629782 191.234975 68.869037 190.469656 69.634356 C 189.700826 70.378611 188.475613 70.750739 186.786997 70.750739 L 155.38785 70.750739 C 154.225829 70.750739 153.327106 71.136909 152.69168 71.902228 C 152.077319 72.671058 151.771893 73.636483 151.771893 74.794994 C 151.771893 75.957015 152.077319 76.943504 152.69168 77.754462 C 153.327106 78.565419 154.225829 79.014781 155.38785 79.102547 L 175.475721 81.798717 C 181.74572 82.69744 186.80806 84.768716 190.666252 88.012546 C 194.545506 91.235311 196.486889 96.617119 196.486889 104.15797 L 196.486889 118.295309 C 196.486889 125.923925 193.987315 131.786691 188.991677 135.883605 C 184.013593 139.962967 177.220508 141.999137 168.605402 141.999137 Z M 168.605402 141.999137 " stroke="#000000" stroke-width="5.050463" stroke-opacity="1" stroke-miterlimit="4"/><path stroke-linecap="butt" transform="matrix(1.112689, 0, 0, 1.112689, 224.624184, 52.111143)" fill="none" stroke-linejoin="miter" d="M 15.387859 23.27043 C 16.276051 23.474047 17.167753 23.877771 18.059455 24.474579 C 18.954668 25.071388 19.702433 25.850749 20.299242 26.809153 C 20.903072 27.767558 21.204987 28.912026 21.204987 30.239047 C 21.204987 32.068089 20.769667 33.602238 19.899029 34.841493 C 19.031902 36.080748 17.876902 37.007557 16.43403 37.618408 C 14.994668 38.225748 13.40786 38.545216 11.677115 38.569791 C 10.072754 38.569791 8.563179 38.253833 7.155413 37.618408 C 5.754669 36.982982 4.627754 36.115855 3.774669 35.020536 C 2.921584 33.918195 2.496797 32.692983 2.496797 31.341387 C 2.496797 30.828834 2.57052 30.512876 2.721478 30.386494 C 2.875946 30.2566 3.156797 30.189898 3.56052 30.189898 L 6.96935 30.189898 C 7.299349 30.189898 7.52052 30.249579 7.63286 30.36894 C 7.752222 30.481281 7.847009 30.705962 7.924243 31.039472 C 8.12786 31.650323 8.468392 32.113727 8.942328 32.433195 C 9.412754 32.749153 9.925307 32.973834 10.472966 33.103727 C 11.020626 33.23011 11.498073 33.293302 11.901796 33.293302 C 12.438924 33.293302 12.986583 33.187983 13.544774 32.973834 C 14.113498 32.756174 14.580413 32.422664 14.94903 31.976813 C 15.314136 31.527451 15.5002 30.958727 15.5002 30.274153 C 15.5002 28.259047 14.148604 27.247983 11.445413 27.247983 L 9.7252 27.247983 C 9.289881 27.247983 9.00552 27.17426 8.875626 27.023302 C 8.752754 26.868834 8.689562 26.573941 8.689562 26.138622 L 8.689562 23.688196 C 8.689562 23.154579 8.84052 22.722771 9.145945 22.392771 L 13.162115 18.180005 L 4.869988 18.180005 C 4.431158 18.180005 4.136265 18.078197 3.981797 17.881601 C 3.830839 17.674473 3.757116 17.404154 3.757116 17.067133 L 3.757116 13.974261 C 3.757116 13.612665 3.830839 13.338835 3.981797 13.152772 C 4.136265 12.959687 4.431158 12.864899 4.869988 12.864899 L 19.477753 12.864899 C 19.913072 12.864899 20.207965 12.959687 20.355412 13.152772 C 20.50988 13.338835 20.590625 13.612665 20.590625 13.974261 L 20.590625 17.067133 C 20.590625 17.32341 20.559029 17.523516 20.495838 17.663941 C 20.432646 17.807878 20.323816 17.979899 20.169348 18.180005 Z M 15.387859 23.27043 " stroke="#0a0a0a" stroke-width="5.40496" stroke-opacity="1" stroke-miterlimit="4"/><g fill="#ed1c24" fill-opacity="1"><g transform="translate(226.20629, 94.393344)"><g><path d="M 15.546875 -16.390625 C 16.535156 -16.160156 17.523438 -15.710938 18.515625 -15.046875 C 19.515625 -14.378906 20.347656 -13.515625 21.015625 -12.453125 C 21.679688 -11.390625 22.015625 -10.117188 22.015625 -8.640625 C 22.015625 -6.597656 21.53125 -4.890625 20.5625 -3.515625 C 19.601562 -2.140625 18.320312 -1.109375 16.71875 -0.421875 C 15.113281 0.253906 13.34375 0.609375 11.40625 0.640625 C 9.625 0.640625 7.953125 0.285156 6.390625 -0.421875 C 4.828125 -1.128906 3.566406 -2.09375 2.609375 -3.3125 C 1.660156 -4.539062 1.1875 -5.90625 1.1875 -7.40625 C 1.1875 -7.976562 1.269531 -8.332031 1.4375 -8.46875 C 1.613281 -8.613281 1.929688 -8.6875 2.390625 -8.6875 L 6.171875 -8.6875 C 6.546875 -8.6875 6.796875 -8.617188 6.921875 -8.484375 C 7.046875 -8.359375 7.148438 -8.113281 7.234375 -7.75 C 7.460938 -7.070312 7.835938 -6.550781 8.359375 -6.1875 C 8.890625 -5.832031 9.457031 -5.582031 10.0625 -5.4375 C 10.675781 -5.300781 11.210938 -5.234375 11.671875 -5.234375 C 12.265625 -5.234375 12.875 -5.351562 13.5 -5.59375 C 14.125 -5.84375 14.640625 -6.210938 15.046875 -6.703125 C 15.460938 -7.203125 15.671875 -7.832031 15.671875 -8.59375 C 15.671875 -10.84375 14.164062 -11.96875 11.15625 -11.96875 L 9.234375 -11.96875 C 8.753906 -11.96875 8.441406 -12.050781 8.296875 -12.21875 C 8.160156 -12.382812 8.09375 -12.710938 8.09375 -13.203125 L 8.09375 -15.921875 C 8.09375 -16.515625 8.257812 -17 8.59375 -17.375 L 13.078125 -22.0625 L 3.828125 -22.0625 C 3.347656 -22.0625 3.019531 -22.171875 2.84375 -22.390625 C 2.675781 -22.617188 2.59375 -22.921875 2.59375 -23.296875 L 2.59375 -26.734375 C 2.59375 -27.128906 2.675781 -27.429688 2.84375 -27.640625 C 3.019531 -27.859375 3.347656 -27.96875 3.828125 -27.96875 L 20.09375 -27.96875 C 20.582031 -27.96875 20.910156 -27.859375 21.078125 -27.640625 C 21.242188 -27.429688 21.328125 -27.128906 21.328125 -26.734375 L 21.328125 -23.296875 C 21.328125 -23.003906 21.289062 -22.78125 21.21875 -22.625 C 21.15625 -22.46875 21.035156 -22.28125 20.859375 -22.0625 Z M 15.546875 -16.390625 "/></g></g></g><g fill="#000000" fill-opacity="1"><g transform="translate(234.448601, 133.337999)"><g><path d="M 6.15625 0 L 2.546875 0 C 2.234375 0 2.007812 -0.0664062 1.875 -0.203125 C 1.738281 -0.335938 1.671875 -0.5625 1.671875 -0.875 L 1.671875 -16.578125 C 1.671875 -16.878906 1.738281 -17.097656 1.875 -17.234375 C 2.007812 -17.378906 2.234375 -17.453125 2.546875 -17.453125 L 6.453125 -17.453125 C 6.703125 -17.453125 6.910156 -17.394531 7.078125 -17.28125 C 7.253906 -17.164062 7.414062 -16.976562 7.5625 -16.71875 L 9.734375 -12.765625 C 9.816406 -12.617188 9.882812 -12.515625 9.9375 -12.453125 C 10 -12.390625 10.078125 -12.359375 10.171875 -12.359375 L 10.390625 -12.359375 C 10.492188 -12.359375 10.570312 -12.390625 10.625 -12.453125 C 10.6875 -12.515625 10.753906 -12.617188 10.828125 -12.765625 L 12.984375 -16.71875 C 13.128906 -16.976562 13.285156 -17.164062 13.453125 -17.28125 C 13.628906 -17.394531 13.847656 -17.453125 14.109375 -17.453125 L 18.03125 -17.453125 C 18.332031 -17.453125 18.550781 -17.378906 18.6875 -17.234375 C 18.832031 -17.097656 18.90625 -16.878906 18.90625 -16.578125 L 18.90625 -0.875 C 18.90625 -0.5625 18.832031 -0.335938 18.6875 -0.203125 C 18.550781 -0.0664062 18.332031 0 18.03125 0 L 14.296875 0 C 13.992188 0 13.769531 -0.0664062 13.625 -0.203125 C 13.488281 -0.335938 13.421875 -0.5625 13.421875 -0.875 L 13.421875 -9.40625 L 12 -6.765625 C 11.851562 -6.484375 11.675781 -6.28125 11.46875 -6.15625 C 11.269531 -6.039062 11.019531 -5.984375 10.71875 -5.984375 L 9.734375 -5.984375 C 9.429688 -5.984375 9.175781 -6.039062 8.96875 -6.15625 C 8.769531 -6.28125 8.597656 -6.484375 8.453125 -6.765625 L 7.03125 -9.40625 L 7.03125 -0.875 C 7.03125 -0.5625 6.957031 -0.335938 6.8125 -0.203125 C 6.675781 -0.0664062 6.457031 0 6.15625 0 Z M 6.15625 0 "/></g></g></g><g fill="#000000" fill-opacity="1"><g transform="translate(255.021059, 133.337999)"><g><path d="M 2.15625 0 C 1.851562 0 1.628906 -0.0664062 1.484375 -0.203125 C 1.347656 -0.335938 1.28125 -0.5625 1.28125 -0.875 L 1.28125 -3.75 C 1.28125 -4.0625 1.347656 -4.285156 1.484375 -4.421875 C 1.628906 -4.554688 1.851562 -4.625 2.15625 -4.625 L 4.5625 -4.625 L 4.5625 -12.765625 L 2.15625 -12.765625 C 1.851562 -12.765625 1.628906 -12.832031 1.484375 -12.96875 C 1.347656 -13.113281 1.28125 -13.335938 1.28125 -13.640625 L 1.28125 -16.578125 C 1.28125 -16.878906 1.347656 -17.097656 1.484375 -17.234375 C 1.628906 -17.378906 1.851562 -17.453125 2.15625 -17.453125 L 12.484375 -17.453125 C 12.785156 -17.453125 13.003906 -17.378906 13.140625 -17.234375 C 13.285156 -17.097656 13.359375 -16.878906 13.359375 -16.578125 L 13.359375 -13.640625 C 13.359375 -13.335938 13.285156 -13.113281 13.140625 -12.96875 C 13.003906 -12.832031 12.785156 -12.765625 12.484375 -12.765625 L 10.125 -12.765625 L 10.125 -4.625 L 12.484375 -4.625 C 12.785156 -4.625 13.003906 -4.554688 13.140625 -4.421875 C 13.285156 -4.285156 13.359375 -4.0625 13.359375 -3.75 L 13.359375 -0.875 C 13.359375 -0.5625 13.285156 -0.335938 13.140625 -0.203125 C 13.003906 -0.0664062 12.785156 0 12.484375 0 Z M 2.15625 0 "/></g></g></g><g fill="#000000" fill-opacity="1"><g transform="translate(269.681056, 133.337999)"><g><path d="M 10.71875 0 L 2.546875 0 C 2.234375 0 2.007812 -0.0664062 1.875 -0.203125 C 1.738281 -0.335938 1.671875 -0.5625 1.671875 -0.875 L 1.671875 -16.578125 C 1.671875 -16.878906 1.738281 -17.097656 1.875 -17.234375 C 2.007812 -17.378906 2.234375 -17.453125 2.546875 -17.453125 L 10.71875 -17.453125 C 12.726562 -17.453125 14.222656 -17.046875 15.203125 -16.234375 C 16.179688 -15.429688 16.671875 -14.1875 16.671875 -12.5 L 16.671875 -4.9375 C 16.671875 -3.257812 16.179688 -2.015625 15.203125 -1.203125 C 14.222656 -0.398438 12.726562 0 10.71875 0 Z M 7.171875 -12.8125 L 7.171875 -4.578125 L 10.0625 -4.578125 C 10.445312 -4.578125 10.734375 -4.671875 10.921875 -4.859375 C 11.109375 -5.054688 11.203125 -5.359375 11.203125 -5.765625 L 11.203125 -11.65625 C 11.203125 -12.0625 11.109375 -12.351562 10.921875 -12.53125 C 10.734375 -12.71875 10.445312 -12.8125 10.0625 -12.8125 Z M 7.171875 -12.8125 "/></g></g></g><g fill="#000000" fill-opacity="1"><g transform="translate(287.757678, 133.337999)"><g><path d="M 10.71875 0 L 2.546875 0 C 2.234375 0 2.007812 -0.0664062 1.875 -0.203125 C 1.738281 -0.335938 1.671875 -0.5625 1.671875 -0.875 L 1.671875 -16.578125 C 1.671875 -16.878906 1.738281 -17.097656 1.875 -17.234375 C 2.007812 -17.378906 2.234375 -17.453125 2.546875 -17.453125 L 10.71875 -17.453125 C 12.726562 -17.453125 14.222656 -17.046875 15.203125 -16.234375 C 16.179688 -15.429688 16.671875 -14.1875 16.671875 -12.5 L 16.671875 -4.9375 C 16.671875 -3.257812 16.179688 -2.015625 15.203125 -1.203125 C 14.222656 -0.398438 12.726562 0 10.71875 0 Z M 7.171875 -12.8125 L 7.171875 -4.578125 L 10.0625 -4.578125 C 10.445312 -4.578125 10.734375 -4.671875 10.921875 -4.859375 C 11.109375 -5.054688 11.203125 -5.359375 11.203125 -5.765625 L 11.203125 -11.65625 C 11.203125 -12.0625 11.109375 -12.351562 10.921875 -12.53125 C 10.734375 -12.71875 10.445312 -12.8125 10.0625 -12.8125 Z M 7.171875 -12.8125 "/></g></g></g><g fill="#000000" fill-opacity="1"><g transform="translate(305.834301, 133.337999)"><g><path d="M 14.875 0 L 2.546875 0 C 2.234375 0 2.007812 -0.0664062 1.875 -0.203125 C 1.738281 -0.335938 1.671875 -0.5625 1.671875 -0.875 L 1.671875 -16.578125 C 1.671875 -16.878906 1.738281 -17.097656 1.875 -17.234375 C 2.007812 -17.378906 2.234375 -17.453125 2.546875 -17.453125 L 6.296875 -17.453125 C 6.609375 -17.453125 6.832031 -17.378906 6.96875 -17.234375 C 7.101562 -17.097656 7.171875 -16.878906 7.171875 -16.578125 L 7.171875 -4.578125 L 10.5 -4.578125 L 10.5 -8.5 C 10.5 -8.8125 10.566406 -9.035156 10.703125 -9.171875 C 10.835938 -9.304688 11.054688 -9.375 11.359375 -9.375 L 14.875 -9.375 C 15.1875 -9.375 15.410156 -9.304688 15.546875 -9.171875 C 15.679688 -9.035156 15.75 -8.8125 15.75 -8.5 L 15.75 -0.875 C 15.75 -0.5625 15.679688 -0.335938 15.546875 -0.203125 C 15.410156 -0.0664062 15.1875 0 14.875 0 Z M 14.875 0 "/></g></g></g><g fill="#000000" fill-opacity="1"><g transform="translate(322.675124, 133.337999)"><g><path d="M 13.796875 0 L 2.546875 0 C 2.234375 0 2.007812 -0.0664062 1.875 -0.203125 C 1.738281 -0.335938 1.671875 -0.5625 1.671875 -0.875 L 1.671875 -16.578125 C 1.671875 -16.878906 1.738281 -17.097656 1.875 -17.234375 C 2.007812 -17.378906 2.234375 -17.453125 2.546875 -17.453125 L 13.796875 -17.453125 C 14.097656 -17.453125 14.316406 -17.378906 14.453125 -17.234375 C 14.585938 -17.097656 14.65625 -16.878906 14.65625 -16.578125 L 14.65625 -13.734375 C 14.65625 -13.429688 14.585938 -13.210938 14.453125 -13.078125 C 14.316406 -12.941406 14.097656 -12.875 13.796875 -12.875 L 7.09375 -12.875 L 7.09375 -11 L 11.828125 -11 C 12.128906 -11 12.347656 -10.929688 12.484375 -10.796875 C 12.628906 -10.660156 12.703125 -10.4375 12.703125 -10.125 L 12.703125 -7.53125 C 12.703125 -7.226562 12.628906 -7.007812 12.484375 -6.875 C 12.347656 -6.738281 12.128906 -6.671875 11.828125 -6.671875 L 7.09375 -6.671875 L 7.09375 -4.578125 L 13.796875 -4.578125 C 14.097656 -4.578125 14.316406 -4.507812 14.453125 -4.375 C 14.585938 -4.238281 14.65625 -4.015625 14.65625 -3.703125 L 14.65625 -0.875 C 14.65625 -0.5625 14.585938 -0.335938 14.453125 -0.203125 C 14.316406 -0.0664062 14.097656 0 13.796875 0 Z M 13.796875 0 "/></g></g></g><g fill="#000000" fill-opacity="1"><g transform="translate(338.52246, 133.337999)"><g/></g></g><g fill="#000000" fill-opacity="1"><g transform="translate(343.974525, 133.337999)"><g><path d="M 9.765625 0 L 2.109375 0 C 1.796875 0 1.570312 -0.0664062 1.4375 -0.203125 C 1.300781 -0.335938 1.234375 -0.5625 1.234375 -0.875 L 1.234375 -3.703125 C 1.234375 -4.015625 1.300781 -4.238281 1.4375 -4.375 C 1.570312 -4.507812 1.796875 -4.578125 2.109375 -4.578125 L 8.625 -4.578125 C 8.832031 -4.578125 8.988281 -4.644531 9.09375 -4.78125 C 9.195312 -4.925781 9.25 -5.09375 9.25 -5.28125 C 9.25 -5.550781 9.195312 -5.75 9.09375 -5.875 C 8.988281 -6.007812 8.832031 -6.085938 8.625 -6.109375 L 5 -6.609375 C 3.863281 -6.773438 2.953125 -7.148438 2.265625 -7.734375 C 1.578125 -8.316406 1.234375 -9.285156 1.234375 -10.640625 L 1.234375 -13.1875 C 1.234375 -14.5625 1.675781 -15.613281 2.5625 -16.34375 C 3.457031 -17.082031 4.6875 -17.453125 6.25 -17.453125 L 13.03125 -17.453125 C 13.34375 -17.453125 13.566406 -17.378906 13.703125 -17.234375 C 13.835938 -17.097656 13.90625 -16.878906 13.90625 -16.578125 L 13.90625 -13.6875 C 13.90625 -13.382812 13.835938 -13.160156 13.703125 -13.015625 C 13.566406 -12.878906 13.34375 -12.8125 13.03125 -12.8125 L 7.390625 -12.8125 C 7.179688 -12.8125 7.019531 -12.742188 6.90625 -12.609375 C 6.789062 -12.472656 6.734375 -12.300781 6.734375 -12.09375 C 6.734375 -11.882812 6.789062 -11.707031 6.90625 -11.5625 C 7.019531 -11.414062 7.179688 -11.332031 7.390625 -11.3125 L 11 -10.828125 C 12.132812 -10.671875 13.046875 -10.300781 13.734375 -9.71875 C 14.429688 -9.132812 14.78125 -8.164062 14.78125 -6.8125 L 14.78125 -4.265625 C 14.78125 -2.890625 14.332031 -1.832031 13.4375 -1.09375 C 12.539062 -0.363281 11.316406 0 9.765625 0 Z M 9.765625 0 "/></g></g></g><g fill="#000000" fill-opacity="1"><g transform="translate(359.724933, 133.337999)"><g><path d="M 13.28125 0 L 7.375 0 C 5.351562 0 3.851562 -0.398438 2.875 -1.203125 C 1.894531 -2.015625 1.40625 -3.257812 1.40625 -4.9375 L 1.40625 -12.484375 C 1.40625 -14.160156 1.894531 -15.40625 2.875 -16.21875 C 3.851562 -17.039062 5.351562 -17.453125 7.375 -17.453125 L 13.28125 -17.453125 C 13.582031 -17.453125 13.800781 -17.378906 13.9375 -17.234375 C 14.082031 -17.097656 14.15625 -16.878906 14.15625 -16.578125 L 14.15625 -13.640625 C 14.15625 -13.335938 14.082031 -13.113281 13.9375 -12.96875 C 13.800781 -12.832031 13.582031 -12.765625 13.28125 -12.765625 L 8.40625 -12.765625 C 7.90625 -12.765625 7.535156 -12.664062 7.296875 -12.46875 C 7.054688 -12.269531 6.9375 -11.96875 6.9375 -11.5625 L 6.9375 -5.796875 C 6.9375 -5.390625 7.054688 -5.09375 7.296875 -4.90625 C 7.535156 -4.71875 7.90625 -4.625 8.40625 -4.625 L 13.28125 -4.625 C 13.582031 -4.625 13.800781 -4.554688 13.9375 -4.421875 C 14.082031 -4.285156 14.15625 -4.0625 14.15625 -3.75 L 14.15625 -0.875 C 14.15625 -0.5625 14.082031 -0.335938 13.9375 -0.203125 C 13.800781 -0.0664062 13.582031 0 13.28125 0 Z M 13.28125 0 "/></g></g></g><g fill="#000000" fill-opacity="1"><g transform="translate(374.942243, 133.337999)"><g><path d="M 6.296875 0 L 2.546875 0 C 2.234375 0 2.007812 -0.0664062 1.875 -0.203125 C 1.738281 -0.335938 1.671875 -0.5625 1.671875 -0.875 L 1.671875 -16.578125 C 1.671875 -16.878906 1.738281 -17.097656 1.875 -17.234375 C 2.007812 -17.378906 2.234375 -17.453125 2.546875 -17.453125 L 6.296875 -17.453125 C 6.609375 -17.453125 6.832031 -17.378906 6.96875 -17.234375 C 7.101562 -17.097656 7.171875 -16.878906 7.171875 -16.578125 L 7.171875 -11.3125 L 11.21875 -11.3125 L 11.21875 -16.578125 C 11.21875 -16.878906 11.285156 -17.097656 11.421875 -17.234375 C 11.554688 -17.378906 11.78125 -17.453125 12.09375 -17.453125 L 15.84375 -17.453125 C 16.15625 -17.453125 16.378906 -17.378906 16.515625 -17.234375 C 16.648438 -17.097656 16.71875 -16.878906 16.71875 -16.578125 L 16.71875 -0.875 C 16.71875 -0.5625 16.648438 -0.335938 16.515625 -0.203125 C 16.378906 -0.0664062 16.15625 0 15.84375 0 L 12.09375 0 C 11.78125 0 11.554688 -0.0664062 11.421875 -0.203125 C 11.285156 -0.335938 11.21875 -0.5625 11.21875 -0.875 L 11.21875 -6.25 L 7.171875 -6.25 L 7.171875 -0.875 C 7.171875 -0.5625 7.101562 -0.335938 6.96875 -0.203125 C 6.832031 -0.0664062 6.609375 0 6.296875 0 Z M 6.296875 0 "/></g></g></g><g fill="#000000" fill-opacity="1"><g transform="translate(393.333869, 133.337999)"><g><path d="M 16.453125 -4.578125 C 16.453125 -3.835938 16.34375 -3.160156 16.125 -2.546875 C 15.90625 -1.941406 15.515625 -1.425781 14.953125 -1 C 14.398438 -0.570312 13.632812 -0.238281 12.65625 0 C 11.6875 0.238281 10.445312 0.359375 8.9375 0.359375 C 7.4375 0.359375 6.191406 0.238281 5.203125 0 C 4.222656 -0.238281 3.453125 -0.570312 2.890625 -1 C 2.335938 -1.425781 1.953125 -1.941406 1.734375 -2.546875 C 1.515625 -3.160156 1.40625 -3.835938 1.40625 -4.578125 L 1.40625 -12.84375 C 1.40625 -13.582031 1.515625 -14.253906 1.734375 -14.859375 C 1.953125 -15.472656 2.335938 -15.992188 2.890625 -16.421875 C 3.453125 -16.859375 4.222656 -17.195312 5.203125 -17.4375 C 6.191406 -17.6875 7.4375 -17.8125 8.9375 -17.8125 C 10.445312 -17.8125 11.6875 -17.6875 12.65625 -17.4375 C 13.632812 -17.195312 14.398438 -16.859375 14.953125 -16.421875 C 15.515625 -15.992188 15.90625 -15.472656 16.125 -14.859375 C 16.34375 -14.253906 16.453125 -13.582031 16.453125 -12.84375 Z M 6.90625 -5.453125 C 6.90625 -5.128906 7.023438 -4.859375 7.265625 -4.640625 C 7.515625 -4.421875 8.070312 -4.3125 8.9375 -4.3125 C 9.8125 -4.3125 10.367188 -4.421875 10.609375 -4.640625 C 10.859375 -4.859375 10.984375 -5.128906 10.984375 -5.453125 L 10.984375 -11.96875 C 10.984375 -12.28125 10.859375 -12.546875 10.609375 -12.765625 C 10.367188 -12.984375 9.8125 -13.09375 8.9375 -13.09375 C 8.070312 -13.09375 7.515625 -12.984375 7.265625 -12.765625 C 7.023438 -12.546875 6.90625 -12.28125 6.90625 -11.96875 Z M 6.90625 -5.453125 "/></g></g></g><g fill="#000000" fill-opacity="1"><g transform="translate(411.192417, 133.337999)"><g><path d="M 16.453125 -4.578125 C 16.453125 -3.835938 16.34375 -3.160156 16.125 -2.546875 C 15.90625 -1.941406 15.515625 -1.425781 14.953125 -1 C 14.398438 -0.570312 13.632812 -0.238281 12.65625 0 C 11.6875 0.238281 10.445312 0.359375 8.9375 0.359375 C 7.4375 0.359375 6.191406 0.238281 5.203125 0 C 4.222656 -0.238281 3.453125 -0.570312 2.890625 -1 C 2.335938 -1.425781 1.953125 -1.941406 1.734375 -2.546875 C 1.515625 -3.160156 1.40625 -3.835938 1.40625 -4.578125 L 1.40625 -12.84375 C 1.40625 -13.582031 1.515625 -14.253906 1.734375 -14.859375 C 1.953125 -15.472656 2.335938 -15.992188 2.890625 -16.421875 C 3.453125 -16.859375 4.222656 -17.195312 5.203125 -17.4375 C 6.191406 -17.6875 7.4375 -17.8125 8.9375 -17.8125 C 10.445312 -17.8125 11.6875 -17.6875 12.65625 -17.4375 C 13.632812 -17.195312 14.398438 -16.859375 14.953125 -16.421875 C 15.515625 -15.992188 15.90625 -15.472656 16.125 -14.859375 C 16.34375 -14.253906 16.453125 -13.582031 16.453125 -12.84375 Z M 6.90625 -5.453125 C 6.90625 -5.128906 7.023438 -4.859375 7.265625 -4.640625 C 7.515625 -4.421875 8.070312 -4.3125 8.9375 -4.3125 C 9.8125 -4.3125 10.367188 -4.421875 10.609375 -4.640625 C 10.859375 -4.859375 10.984375 -5.128906 10.984375 -5.453125 L 10.984375 -11.96875 C 10.984375 -12.28125 10.859375 -12.546875 10.609375 -12.765625 C 10.367188 -12.984375 9.8125 -13.09375 8.9375 -13.09375 C 8.070312 -13.09375 7.515625 -12.984375 7.265625 -12.765625 C 7.023438 -12.546875 6.90625 -12.28125 6.90625 -11.96875 Z M 6.90625 -5.453125 "/></g></g></g><g fill="#000000" fill-opacity="1"><g transform="translate(429.050965, 133.337999)"><g><path d="M 14.875 0 L 2.546875 0 C 2.234375 0 2.007812 -0.0664062 1.875 -0.203125 C 1.738281 -0.335938 1.671875 -0.5625 1.671875 -0.875 L 1.671875 -16.578125 C 1.671875 -16.878906 1.738281 -17.097656 1.875 -17.234375 C 2.007812 -17.378906 2.234375 -17.453125 2.546875 -17.453125 L 6.296875 -17.453125 C 6.609375 -17.453125 6.832031 -17.378906 6.96875 -17.234375 C 7.101562 -17.097656 7.171875 -16.878906 7.171875 -16.578125 L 7.171875 -4.578125 L 10.5 -4.578125 L 10.5 -8.5 C 10.5 -8.8125 10.566406 -9.035156 10.703125 -9.171875 C 10.835938 -9.304688 11.054688 -9.375 11.359375 -9.375 L 14.875 -9.375 C 15.1875 -9.375 15.410156 -9.304688 15.546875 -9.171875 C 15.679688 -9.035156 15.75 -8.8125 15.75 -8.5 L 15.75 -0.875 C 15.75 -0.5625 15.679688 -0.335938 15.546875 -0.203125 C 15.410156 -0.0664062 15.1875 0 14.875 0 Z M 14.875 0 "/></g></g></g><g fill="#000000" fill-opacity="1"><g transform="translate(235.389349, 157.082721)"><g><path d="M 10.046875 0 L 2.171875 0 C 1.859375 0 1.628906 -0.0664062 1.484375 -0.203125 C 1.335938 -0.347656 1.265625 -0.578125 1.265625 -0.890625 L 1.265625 -3.8125 C 1.265625 -4.132812 1.335938 -4.363281 1.484375 -4.5 C 1.628906 -4.644531 1.859375 -4.71875 2.171875 -4.71875 L 8.875 -4.71875 C 9.09375 -4.71875 9.253906 -4.785156 9.359375 -4.921875 C 9.472656 -5.066406 9.53125 -5.238281 9.53125 -5.4375 C 9.53125 -5.71875 9.472656 -5.925781 9.359375 -6.0625 C 9.253906 -6.195312 9.09375 -6.269531 8.875 -6.28125 L 5.140625 -6.8125 C 3.972656 -6.976562 3.035156 -7.359375 2.328125 -7.953125 C 1.617188 -8.554688 1.265625 -9.554688 1.265625 -10.953125 L 1.265625 -13.5625 C 1.265625 -14.976562 1.722656 -16.0625 2.640625 -16.8125 C 3.554688 -17.570312 4.820312 -17.953125 6.4375 -17.953125 L 13.421875 -17.953125 C 13.734375 -17.953125 13.957031 -17.878906 14.09375 -17.734375 C 14.238281 -17.597656 14.3125 -17.375 14.3125 -17.0625 L 14.3125 -14.09375 C 14.3125 -13.769531 14.238281 -13.535156 14.09375 -13.390625 C 13.957031 -13.253906 13.734375 -13.1875 13.421875 -13.1875 L 7.609375 -13.1875 C 7.390625 -13.1875 7.222656 -13.113281 7.109375 -12.96875 C 6.992188 -12.832031 6.9375 -12.65625 6.9375 -12.4375 C 6.9375 -12.226562 6.992188 -12.046875 7.109375 -11.890625 C 7.222656 -11.742188 7.390625 -11.660156 7.609375 -11.640625 L 11.328125 -11.140625 C 12.484375 -10.972656 13.421875 -10.59375 14.140625 -10 C 14.859375 -9.40625 15.21875 -8.40625 15.21875 -7 L 15.21875 -4.390625 C 15.21875 -2.972656 14.753906 -1.882812 13.828125 -1.125 C 12.898438 -0.375 11.640625 0 10.046875 0 Z M 10.046875 0 "/></g></g></g><g fill="#000000" fill-opacity="1"><g transform="translate(251.595708, 157.082721)"><g><path d="M 6.484375 0 L 2.625 0 C 2.300781 0 2.066406 -0.0664062 1.921875 -0.203125 C 1.785156 -0.347656 1.71875 -0.578125 1.71875 -0.890625 L 1.71875 -17.0625 C 1.71875 -17.375 1.785156 -17.597656 1.921875 -17.734375 C 2.066406 -17.878906 2.300781 -17.953125 2.625 -17.953125 L 10.25 -17.953125 C 12.507812 -17.953125 14.054688 -17.503906 14.890625 -16.609375 C 15.722656 -15.710938 16.140625 -14.539062 16.140625 -13.09375 L 16.140625 -9.90625 C 16.140625 -8.457031 15.722656 -7.28125 14.890625 -6.375 C 14.054688 -5.476562 12.507812 -5.03125 10.25 -5.03125 L 7.375 -5.03125 L 7.375 -0.890625 C 7.375 -0.578125 7.300781 -0.347656 7.15625 -0.203125 C 7.019531 -0.0664062 6.796875 0 6.484375 0 Z M 7.328125 -13.296875 L 7.328125 -9.53125 L 9.578125 -9.53125 C 10.054688 -9.53125 10.367188 -9.65625 10.515625 -9.90625 C 10.671875 -10.15625 10.75 -10.4375 10.75 -10.75 L 10.75 -12.0625 C 10.75 -12.382812 10.671875 -12.671875 10.515625 -12.921875 C 10.367188 -13.171875 10.054688 -13.296875 9.578125 -13.296875 Z M 7.328125 -13.296875 "/></g></g></g><g fill="#000000" fill-opacity="1"><g transform="translate(268.599918, 157.082721)"><g><path d="M 16.9375 -4.71875 C 16.9375 -3.945312 16.820312 -3.25 16.59375 -2.625 C 16.375 -2.007812 15.972656 -1.476562 15.390625 -1.03125 C 14.816406 -0.59375 14.023438 -0.25 13.015625 0 C 12.015625 0.25 10.742188 0.375 9.203125 0.375 C 7.648438 0.375 6.367188 0.25 5.359375 0 C 4.347656 -0.25 3.554688 -0.59375 2.984375 -1.03125 C 2.410156 -1.476562 2.007812 -2.007812 1.78125 -2.625 C 1.5625 -3.25 1.453125 -3.945312 1.453125 -4.71875 L 1.453125 -13.21875 C 1.453125 -13.976562 1.5625 -14.671875 1.78125 -15.296875 C 2.007812 -15.921875 2.410156 -16.457031 2.984375 -16.90625 C 3.554688 -17.351562 4.347656 -17.703125 5.359375 -17.953125 C 6.367188 -18.203125 7.648438 -18.328125 9.203125 -18.328125 C 10.742188 -18.328125 12.015625 -18.203125 13.015625 -17.953125 C 14.023438 -17.703125 14.816406 -17.351562 15.390625 -16.90625 C 15.972656 -16.457031 16.375 -15.921875 16.59375 -15.296875 C 16.820312 -14.671875 16.9375 -13.976562 16.9375 -13.21875 Z M 7.109375 -5.609375 C 7.109375 -5.273438 7.234375 -4.992188 7.484375 -4.765625 C 7.734375 -4.546875 8.304688 -4.4375 9.203125 -4.4375 C 10.097656 -4.4375 10.671875 -4.546875 10.921875 -4.765625 C 11.171875 -4.992188 11.296875 -5.273438 11.296875 -5.609375 L 11.296875 -12.3125 C 11.296875 -12.632812 11.171875 -12.90625 10.921875 -13.125 C 10.671875 -13.351562 10.097656 -13.46875 9.203125 -13.46875 C 8.304688 -13.46875 7.734375 -13.351562 7.484375 -13.125 C 7.234375 -12.90625 7.109375 -12.632812 7.109375 -12.3125 Z M 7.109375 -5.609375 "/></g></g></g><g fill="#000000" fill-opacity="1"><g transform="translate(286.975436, 157.082721)"><g><path d="M 7.359375 -13.46875 L 7.359375 -10.28125 L 9.234375 -10.28125 C 9.660156 -10.28125 9.945312 -10.390625 10.09375 -10.609375 C 10.25 -10.835938 10.328125 -11.117188 10.328125 -11.453125 L 10.328125 -12.296875 C 10.328125 -12.628906 10.25 -12.90625 10.09375 -13.125 C 9.945312 -13.351562 9.660156 -13.46875 9.234375 -13.46875 Z M 6.453125 0 L 2.625 0 C 2.300781 0 2.066406 -0.0664062 1.921875 -0.203125 C 1.785156 -0.347656 1.71875 -0.578125 1.71875 -0.890625 L 1.71875 -17.0625 C 1.71875 -17.375 1.785156 -17.597656 1.921875 -17.734375 C 2.066406 -17.878906 2.300781 -17.953125 2.625 -17.953125 L 10.921875 -17.953125 C 12.785156 -17.953125 14.066406 -17.566406 14.765625 -16.796875 C 15.472656 -16.023438 15.828125 -15.023438 15.828125 -13.796875 L 15.828125 -12.640625 C 15.828125 -11.941406 15.722656 -11.347656 15.515625 -10.859375 C 15.316406 -10.367188 14.957031 -10.015625 14.4375 -9.796875 C 15.332031 -9.703125 16.054688 -9.335938 16.609375 -8.703125 C 17.171875 -8.066406 17.453125 -7.226562 17.453125 -6.1875 L 17.453125 -0.890625 C 17.453125 -0.578125 17.378906 -0.347656 17.234375 -0.203125 C 17.097656 -0.0664062 16.875 0 16.5625 0 L 12.6875 0 C 12.375 0 12.144531 -0.0664062 12 -0.203125 C 11.863281 -0.347656 11.796875 -0.578125 11.796875 -0.890625 L 11.796875 -4.71875 C 11.796875 -5.082031 11.722656 -5.347656 11.578125 -5.515625 C 11.441406 -5.691406 11.195312 -5.78125 10.84375 -5.78125 L 7.359375 -5.78125 L 7.359375 -0.890625 C 7.359375 -0.578125 7.285156 -0.347656 7.140625 -0.203125 C 7.003906 -0.0664062 6.773438 0 6.453125 0 Z M 6.453125 0 "/></g></g></g><g fill="#000000" fill-opacity="1"><g transform="translate(305.500549, 157.082721)"><g><path d="M 10.203125 0 L 6.15625 0 C 5.84375 0 5.613281 -0.0664062 5.46875 -0.203125 C 5.332031 -0.347656 5.265625 -0.578125 5.265625 -0.890625 L 5.265625 -13.140625 L 1.59375 -13.140625 C 1.28125 -13.140625 1.050781 -13.207031 0.90625 -13.34375 C 0.769531 -13.488281 0.703125 -13.722656 0.703125 -14.046875 L 0.703125 -17.0625 C 0.703125 -17.375 0.769531 -17.597656 0.90625 -17.734375 C 1.050781 -17.878906 1.28125 -17.953125 1.59375 -17.953125 L 14.765625 -17.953125 C 15.078125 -17.953125 15.300781 -17.878906 15.4375 -17.734375 C 15.582031 -17.597656 15.65625 -17.375 15.65625 -17.0625 L 15.65625 -14.046875 C 15.65625 -13.722656 15.582031 -13.488281 15.4375 -13.34375 C 15.300781 -13.207031 15.078125 -13.140625 14.765625 -13.140625 L 11.09375 -13.140625 L 11.09375 -0.890625 C 11.09375 -0.578125 11.019531 -0.347656 10.875 -0.203125 C 10.738281 -0.0664062 10.515625 0 10.203125 0 Z M 10.203125 0 "/></g></g></g><g fill="#000000" fill-opacity="1"><g transform="translate(321.856501, 157.082721)"><g><path d="M 10.046875 0 L 2.171875 0 C 1.859375 0 1.628906 -0.0664062 1.484375 -0.203125 C 1.335938 -0.347656 1.265625 -0.578125 1.265625 -0.890625 L 1.265625 -3.8125 C 1.265625 -4.132812 1.335938 -4.363281 1.484375 -4.5 C 1.628906 -4.644531 1.859375 -4.71875 2.171875 -4.71875 L 8.875 -4.71875 C 9.09375 -4.71875 9.253906 -4.785156 9.359375 -4.921875 C 9.472656 -5.066406 9.53125 -5.238281 9.53125 -5.4375 C 9.53125 -5.71875 9.472656 -5.925781 9.359375 -6.0625 C 9.253906 -6.195312 9.09375 -6.269531 8.875 -6.28125 L 5.140625 -6.8125 C 3.972656 -6.976562 3.035156 -7.359375 2.328125 -7.953125 C 1.617188 -8.554688 1.265625 -9.554688 1.265625 -10.953125 L 1.265625 -13.5625 C 1.265625 -14.976562 1.722656 -16.0625 2.640625 -16.8125 C 3.554688 -17.570312 4.820312 -17.953125 6.4375 -17.953125 L 13.421875 -17.953125 C 13.734375 -17.953125 13.957031 -17.878906 14.09375 -17.734375 C 14.238281 -17.597656 14.3125 -17.375 14.3125 -17.0625 L 14.3125 -14.09375 C 14.3125 -13.769531 14.238281 -13.535156 14.09375 -13.390625 C 13.957031 -13.253906 13.734375 -13.1875 13.421875 -13.1875 L 7.609375 -13.1875 C 7.390625 -13.1875 7.222656 -13.113281 7.109375 -12.96875 C 6.992188 -12.832031 6.9375 -12.65625 6.9375 -12.4375 C 6.9375 -12.226562 6.992188 -12.046875 7.109375 -11.890625 C 7.222656 -11.742188 7.390625 -11.660156 7.609375 -11.640625 L 11.328125 -11.140625 C 12.484375 -10.972656 13.421875 -10.59375 14.140625 -10 C 14.859375 -9.40625 15.21875 -8.40625 15.21875 -7 L 15.21875 -4.390625 C 15.21875 -2.972656 14.753906 -1.882812 13.828125 -1.125 C 12.898438 -0.375 11.640625 0 10.046875 0 Z M 10.046875 0 "/></g></g></g><g fill="#000000" fill-opacity="1"><g transform="translate(338.06286, 157.082721)"><g/></g></g><g fill="#000000" fill-opacity="1"><g transform="translate(343.672754, 157.082721)"><g><path d="M 10.046875 0 L 2.171875 0 C 1.859375 0 1.628906 -0.0664062 1.484375 -0.203125 C 1.335938 -0.347656 1.265625 -0.578125 1.265625 -0.890625 L 1.265625 -3.8125 C 1.265625 -4.132812 1.335938 -4.363281 1.484375 -4.5 C 1.628906 -4.644531 1.859375 -4.71875 2.171875 -4.71875 L 8.875 -4.71875 C 9.09375 -4.71875 9.253906 -4.785156 9.359375 -4.921875 C 9.472656 -5.066406 9.53125 -5.238281 9.53125 -5.4375 C 9.53125 -5.71875 9.472656 -5.925781 9.359375 -6.0625 C 9.253906 -6.195312 9.09375 -6.269531 8.875 -6.28125 L 5.140625 -6.8125 C 3.972656 -6.976562 3.035156 -7.359375 2.328125 -7.953125 C 1.617188 -8.554688 1.265625 -9.554688 1.265625 -10.953125 L 1.265625 -13.5625 C 1.265625 -14.976562 1.722656 -16.0625 2.640625 -16.8125 C 3.554688 -17.570312 4.820312 -17.953125 6.4375 -17.953125 L 13.421875 -17.953125 C 13.734375 -17.953125 13.957031 -17.878906 14.09375 -17.734375 C 14.238281 -17.597656 14.3125 -17.375 14.3125 -17.0625 L 14.3125 -14.09375 C 14.3125 -13.769531 14.238281 -13.535156 14.09375 -13.390625 C 13.957031 -13.253906 13.734375 -13.1875 13.421875 -13.1875 L 7.609375 -13.1875 C 7.390625 -13.1875 7.222656 -13.113281 7.109375 -12.96875 C 6.992188 -12.832031 6.9375 -12.65625 6.9375 -12.4375 C 6.9375 -12.226562 6.992188 -12.046875 7.109375 -11.890625 C 7.222656 -11.742188 7.390625 -11.660156 7.609375 -11.640625 L 11.328125 -11.140625 C 12.484375 -10.972656 13.421875 -10.59375 14.140625 -10 C 14.859375 -9.40625 15.21875 -8.40625 15.21875 -7 L 15.21875 -4.390625 C 15.21875 -2.972656 14.753906 -1.882812 13.828125 -1.125 C 12.898438 -0.375 11.640625 0 10.046875 0 Z M 10.046875 0 "/></g></g></g><g fill="#000000" fill-opacity="1"><g transform="translate(359.87912, 157.082721)"><g><path d="M 13.671875 0 L 7.578125 0 C 5.503906 0 3.960938 -0.414062 2.953125 -1.25 C 1.953125 -2.082031 1.453125 -3.363281 1.453125 -5.09375 L 1.453125 -12.84375 C 1.453125 -14.570312 1.953125 -15.851562 2.953125 -16.6875 C 3.960938 -17.53125 5.503906 -17.953125 7.578125 -17.953125 L 13.671875 -17.953125 C 13.984375 -17.953125 14.207031 -17.878906 14.34375 -17.734375 C 14.488281 -17.597656 14.5625 -17.375 14.5625 -17.0625 L 14.5625 -14.046875 C 14.5625 -13.722656 14.488281 -13.488281 14.34375 -13.34375 C 14.207031 -13.207031 13.984375 -13.140625 13.671875 -13.140625 L 8.65625 -13.140625 C 8.132812 -13.140625 7.75 -13.035156 7.5 -12.828125 C 7.25 -12.617188 7.125 -12.304688 7.125 -11.890625 L 7.125 -5.953125 C 7.125 -5.546875 7.25 -5.242188 7.5 -5.046875 C 7.75 -4.859375 8.132812 -4.765625 8.65625 -4.765625 L 13.671875 -4.765625 C 13.984375 -4.765625 14.207031 -4.691406 14.34375 -4.546875 C 14.488281 -4.410156 14.5625 -4.179688 14.5625 -3.859375 L 14.5625 -0.890625 C 14.5625 -0.578125 14.488281 -0.347656 14.34375 -0.203125 C 14.207031 -0.0664062 13.984375 0 13.671875 0 Z M 13.671875 0 "/></g></g></g><g fill="#000000" fill-opacity="1"><g transform="translate(375.536948, 157.082721)"><g><path d="M 16.9375 -4.71875 C 16.9375 -3.945312 16.820312 -3.25 16.59375 -2.625 C 16.375 -2.007812 15.972656 -1.476562 15.390625 -1.03125 C 14.816406 -0.59375 14.023438 -0.25 13.015625 0 C 12.015625 0.25 10.742188 0.375 9.203125 0.375 C 7.648438 0.375 6.367188 0.25 5.359375 0 C 4.347656 -0.25 3.554688 -0.59375 2.984375 -1.03125 C 2.410156 -1.476562 2.007812 -2.007812 1.78125 -2.625 C 1.5625 -3.25 1.453125 -3.945312 1.453125 -4.71875 L 1.453125 -13.21875 C 1.453125 -13.976562 1.5625 -14.671875 1.78125 -15.296875 C 2.007812 -15.921875 2.410156 -16.457031 2.984375 -16.90625 C 3.554688 -17.351562 4.347656 -17.703125 5.359375 -17.953125 C 6.367188 -18.203125 7.648438 -18.328125 9.203125 -18.328125 C 10.742188 -18.328125 12.015625 -18.203125 13.015625 -17.953125 C 14.023438 -17.703125 14.816406 -17.351562 15.390625 -16.90625 C 15.972656 -16.457031 16.375 -15.921875 16.59375 -15.296875 C 16.820312 -14.671875 16.9375 -13.976562 16.9375 -13.21875 Z M 7.109375 -5.609375 C 7.109375 -5.273438 7.234375 -4.992188 7.484375 -4.765625 C 7.734375 -4.546875 8.304688 -4.4375 9.203125 -4.4375 C 10.097656 -4.4375 10.671875 -4.546875 10.921875 -4.765625 C 11.171875 -4.992188 11.296875 -5.273438 11.296875 -5.609375 L 11.296875 -12.3125 C 11.296875 -12.632812 11.171875 -12.90625 10.921875 -13.125 C 10.671875 -13.351562 10.097656 -13.46875 9.203125 -13.46875 C 8.304688 -13.46875 7.734375 -13.351562 7.484375 -13.125 C 7.234375 -12.90625 7.109375 -12.632812 7.109375 -12.3125 Z M 7.109375 -5.609375 "/></g></g></g><g fill="#000000" fill-opacity="1"><g transform="translate(393.912474, 157.082721)"><g><path d="M 7.359375 -13.46875 L 7.359375 -10.28125 L 9.234375 -10.28125 C 9.660156 -10.28125 9.945312 -10.390625 10.09375 -10.609375 C 10.25 -10.835938 10.328125 -11.117188 10.328125 -11.453125 L 10.328125 -12.296875 C 10.328125 -12.628906 10.25 -12.90625 10.09375 -13.125 C 9.945312 -13.351562 9.660156 -13.46875 9.234375 -13.46875 Z M 6.453125 0 L 2.625 0 C 2.300781 0 2.066406 -0.0664062 1.921875 -0.203125 C 1.785156 -0.347656 1.71875 -0.578125 1.71875 -0.890625 L 1.71875 -17.0625 C 1.71875 -17.375 1.785156 -17.597656 1.921875 -17.734375 C 2.066406 -17.878906 2.300781 -17.953125 2.625 -17.953125 L 10.921875 -17.953125 C 12.785156 -17.953125 14.066406 -17.566406 14.765625 -16.796875 C 15.472656 -16.023438 15.828125 -15.023438 15.828125 -13.796875 L 15.828125 -12.640625 C 15.828125 -11.941406 15.722656 -11.347656 15.515625 -10.859375 C 15.316406 -10.367188 14.957031 -10.015625 14.4375 -9.796875 C 15.332031 -9.703125 16.054688 -9.335938 16.609375 -8.703125 C 17.171875 -8.066406 17.453125 -7.226562 17.453125 -6.1875 L 17.453125 -0.890625 C 17.453125 -0.578125 17.378906 -0.347656 17.234375 -0.203125 C 17.097656 -0.0664062 16.875 0 16.5625 0 L 12.6875 0 C 12.375 0 12.144531 -0.0664062 12 -0.203125 C 11.863281 -0.347656 11.796875 -0.578125 11.796875 -0.890625 L 11.796875 -4.71875 C 11.796875 -5.082031 11.722656 -5.347656 11.578125 -5.515625 C 11.441406 -5.691406 11.195312 -5.78125 10.84375 -5.78125 L 7.359375 -5.78125 L 7.359375 -0.890625 C 7.359375 -0.578125 7.285156 -0.347656 7.140625 -0.203125 C 7.003906 -0.0664062 6.773438 0 6.453125 0 Z M 6.453125 0 "/></g></g></g><g fill="#000000" fill-opacity="1"><g transform="translate(412.437586, 157.082721)"><g><path d="M 14.1875 0 L 2.625 0 C 2.300781 0 2.066406 -0.0664062 1.921875 -0.203125 C 1.785156 -0.347656 1.71875 -0.578125 1.71875 -0.890625 L 1.71875 -17.0625 C 1.71875 -17.375 1.785156 -17.597656 1.921875 -17.734375 C 2.066406 -17.878906 2.300781 -17.953125 2.625 -17.953125 L 14.1875 -17.953125 C 14.5 -17.953125 14.726562 -17.878906 14.875 -17.734375 C 15.019531 -17.597656 15.09375 -17.375 15.09375 -17.0625 L 15.09375 -14.140625 C 15.09375 -13.828125 15.019531 -13.597656 14.875 -13.453125 C 14.726562 -13.304688 14.5 -13.234375 14.1875 -13.234375 L 7.3125 -13.234375 L 7.3125 -11.328125 L 12.171875 -11.328125 C 12.484375 -11.328125 12.707031 -11.253906 12.84375 -11.109375 C 12.988281 -10.960938 13.0625 -10.734375 13.0625 -10.421875 L 13.0625 -7.75 C 13.0625 -7.4375 12.988281 -7.207031 12.84375 -7.0625 C 12.707031 -6.925781 12.484375 -6.859375 12.171875 -6.859375 L 7.3125 -6.859375 L 7.3125 -4.71875 L 14.1875 -4.71875 C 14.5 -4.71875 14.726562 -4.644531 14.875 -4.5 C 15.019531 -4.363281 15.09375 -4.132812 15.09375 -3.8125 L 15.09375 -0.890625 C 15.09375 -0.578125 15.019531 -0.347656 14.875 -0.203125 C 14.726562 -0.0664062 14.5 0 14.1875 0 Z M 14.1875 0 "/></g></g></g><g fill="#000000" fill-opacity="1"><g transform="translate(428.743672, 157.082721)"><g><path d="M 10.046875 0 L 2.171875 0 C 1.859375 0 1.628906 -0.0664062 1.484375 -0.203125 C 1.335938 -0.347656 1.265625 -0.578125 1.265625 -0.890625 L 1.265625 -3.8125 C 1.265625 -4.132812 1.335938 -4.363281 1.484375 -4.5 C 1.628906 -4.644531 1.859375 -4.71875 2.171875 -4.71875 L 8.875 -4.71875 C 9.09375 -4.71875 9.253906 -4.785156 9.359375 -4.921875 C 9.472656 -5.066406 9.53125 -5.238281 9.53125 -5.4375 C 9.53125 -5.71875 9.472656 -5.925781 9.359375 -6.0625 C 9.253906 -6.195312 9.09375 -6.269531 8.875 -6.28125 L 5.140625 -6.8125 C 3.972656 -6.976562 3.035156 -7.359375 2.328125 -7.953125 C 1.617188 -8.554688 1.265625 -9.554688 1.265625 -10.953125 L 1.265625 -13.5625 C 1.265625 -14.976562 1.722656 -16.0625 2.640625 -16.8125 C 3.554688 -17.570312 4.820312 -17.953125 6.4375 -17.953125 L 13.421875 -17.953125 C 13.734375 -17.953125 13.957031 -17.878906 14.09375 -17.734375 C 14.238281 -17.597656 14.3125 -17.375 14.3125 -17.0625 L 14.3125 -14.09375 C 14.3125 -13.769531 14.238281 -13.535156 14.09375 -13.390625 C 13.957031 -13.253906 13.734375 -13.1875 13.421875 -13.1875 L 7.609375 -13.1875 C 7.390625 -13.1875 7.222656 -13.113281 7.109375 -12.96875 C 6.992188 -12.832031 6.9375 -12.65625 6.9375 -12.4375 C 6.9375 -12.226562 6.992188 -12.046875 7.109375 -11.890625 C 7.222656 -11.742188 7.390625 -11.660156 7.609375 -11.640625 L 11.328125 -11.140625 C 12.484375 -10.972656 13.421875 -10.59375 14.140625 -10 C 14.859375 -9.40625 15.21875 -8.40625 15.21875 -7 L 15.21875 -4.390625 C 15.21875 -2.972656 14.753906 -1.882812 13.828125 -1.125 C 12.898438 -0.375 11.640625 0 10.046875 0 Z M 10.046875 0 "/></g></g></g></svg>