<svg version="1.0" preserveAspectRatio="xMidYMid meet" viewBox="57.75 105.749997462 265.5 151.49999636400003" zoomAndPan="magnify" xmlns:xlink="http://www.w3.org/1999/xlink" xmlns="http://www.w3.org/2000/svg" style="max-height: 500px" width="265.5" height="151.49999636400003"><defs><g/></defs><g fill-opacity="1" fill="#016c78"><g transform="translate(64.331227, 249.504739)"><g><path d="M 39.3125 0 L 16.25 0 C 14.289062 0 12.867188 -0.4375 11.984375 -1.3125 C 11.109375 -2.1875 10.671875 -3.609375 10.671875 -5.578125 L 10.671875 -105.859375 C 10.671875 -107.816406 11.109375 -109.234375 11.984375 -110.109375 C 12.867188 -110.992188 14.289062 -111.4375 16.25 -111.4375 L 41.171875 -111.4375 C 42.816406 -111.4375 44.179688 -111.070312 45.265625 -110.34375 C 46.347656 -109.625 47.351562 -108.4375 48.28125 -106.78125 L 62.21875 -81.5625 C 62.726562 -80.632812 63.164062 -79.960938 63.53125 -79.546875 C 63.894531 -79.140625 64.382812 -78.9375 65 -78.9375 L 66.390625 -78.9375 C 67.015625 -78.9375 67.503906 -79.140625 67.859375 -79.546875 C 68.222656 -79.960938 68.664062 -80.632812 69.1875 -81.5625 L 82.953125 -106.78125 C 83.878906 -108.4375 84.882812 -109.625 85.96875 -110.34375 C 87.050781 -111.070312 88.421875 -111.4375 90.078125 -111.4375 L 115.140625 -111.4375 C 117.109375 -111.4375 118.53125 -110.992188 119.40625 -110.109375 C 120.28125 -109.234375 120.71875 -107.816406 120.71875 -105.859375 L 120.71875 -5.578125 C 120.71875 -3.609375 120.28125 -2.1875 119.40625 -1.3125 C 118.53125 -0.4375 117.109375 0 115.140625 0 L 91.3125 0 C 89.351562 0 87.929688 -0.4375 87.046875 -1.3125 C 86.171875 -2.1875 85.734375 -3.609375 85.734375 -5.578125 L 85.734375 -60.046875 L 76.609375 -43.171875 C 75.679688 -41.421875 74.570312 -40.160156 73.28125 -39.390625 C 71.988281 -38.617188 70.363281 -38.234375 68.40625 -38.234375 L 62.21875 -38.234375 C 60.257812 -38.234375 58.632812 -38.617188 57.34375 -39.390625 C 56.050781 -40.160156 54.941406 -41.421875 54.015625 -43.171875 L 44.875 -60.046875 L 44.875 -5.578125 C 44.875 -3.609375 44.4375 -2.1875 43.5625 -1.3125 C 42.6875 -0.4375 41.269531 0 39.3125 0 Z M 39.3125 0"/></g></g></g><g fill-opacity="1" fill="#016c78"><g transform="translate(195.717874, 249.504739)"><g><path d="M 62.375 0 L 13.46875 0 C 11.507812 0 10.085938 -0.4375 9.203125 -1.3125 C 8.328125 -2.1875 7.890625 -3.609375 7.890625 -5.578125 L 7.890625 -23.671875 C 7.890625 -25.640625 8.328125 -27.0625 9.203125 -27.9375 C 10.085938 -28.8125 11.507812 -29.25 13.46875 -29.25 L 55.09375 -29.25 C 56.4375 -29.25 57.441406 -29.6875 58.109375 -30.5625 C 58.785156 -31.4375 59.125 -32.492188 59.125 -33.734375 C 59.125 -35.492188 58.785156 -36.785156 58.109375 -37.609375 C 57.441406 -38.429688 56.4375 -38.894531 55.09375 -39 L 31.875 -42.25 C 24.65625 -43.28125 18.851562 -45.648438 14.46875 -49.359375 C 10.082031 -53.078125 7.890625 -59.269531 7.890625 -67.9375 L 7.890625 -84.1875 C 7.890625 -92.957031 10.726562 -99.691406 16.40625 -104.390625 C 22.082031 -109.085938 29.921875 -111.4375 39.921875 -111.4375 L 83.265625 -111.4375 C 85.222656 -111.4375 86.640625 -110.992188 87.515625 -110.109375 C 88.390625 -109.234375 88.828125 -107.816406 88.828125 -105.859375 L 88.828125 -87.4375 C 88.828125 -85.476562 88.390625 -84.0625 87.515625 -83.1875 C 86.640625 -82.3125 85.222656 -81.875 83.265625 -81.875 L 47.203125 -81.875 C 45.859375 -81.875 44.828125 -81.429688 44.109375 -80.546875 C 43.390625 -79.671875 43.03125 -78.566406 43.03125 -77.234375 C 43.03125 -75.890625 43.390625 -74.753906 44.109375 -73.828125 C 44.828125 -72.898438 45.859375 -72.382812 47.203125 -72.28125 L 70.265625 -69.1875 C 77.484375 -68.144531 83.3125 -65.765625 87.75 -62.046875 C 92.1875 -58.335938 94.40625 -52.148438 94.40625 -43.484375 L 94.40625 -27.234375 C 94.40625 -18.460938 91.539062 -11.726562 85.8125 -7.03125 C 80.09375 -2.34375 72.28125 0 62.375 0 Z M 62.375 0"/></g></g></g><path stroke-miterlimit="4" stroke-opacity="1" stroke-width="5.050463" stroke="#000000" d="M 34.194477 141.999768 L 14.137363 141.999768 C 12.427699 141.999768 11.190487 141.615689 10.422328 140.850929 C 9.677961 140.082769 9.304078 138.855754 9.304078 137.166483 L 9.304078 49.875043 C 9.304078 48.185772 9.677961 46.958757 10.422328 46.190598 C 11.190487 45.425838 12.427699 45.041758 14.137363 45.041758 L 35.836162 45.041758 C 37.263715 45.041758 38.446544 45.357859 39.388049 45.99346 C 40.329554 46.608667 41.206479 47.638544 42.018825 49.08649 L 54.149622 71.016417 C 54.588085 71.825363 54.961968 72.416778 55.267872 72.790661 C 55.597569 73.140751 56.025834 73.317495 56.54927 73.317495 L 57.766089 73.317495 C 58.316716 73.317495 58.741583 73.140751 59.050886 72.790661 C 59.35679 72.416778 59.74087 71.825363 60.199726 71.016417 L 72.167375 49.08649 C 72.979721 47.638544 73.856646 46.608667 74.798151 45.99346 C 75.739656 45.357859 76.936081 45.041758 78.380628 45.041758 L 100.181395 45.041758 C 101.891059 45.041758 103.128271 45.425838 103.89643 46.190598 C 104.66459 46.958757 105.04527 48.185772 105.04527 49.875043 L 105.04527 137.166483 C 105.04527 138.855754 104.66459 140.082769 103.89643 140.850929 C 103.128271 141.615689 101.891059 141.999768 100.181395 141.999768 L 79.468287 141.999768 C 77.758623 141.999768 76.518012 141.615689 75.753251 140.850929 C 74.985092 140.082769 74.601012 138.855754 74.601012 137.166483 L 74.601012 89.754744 L 66.678096 104.421147 C 65.86575 105.954066 64.890256 107.062119 63.751613 107.741906 C 62.633363 108.3979 61.219407 108.727597 59.509742 108.727597 L 54.149622 108.727597 C 52.439958 108.727597 51.015805 108.3979 49.877162 107.741906 C 48.758912 107.062119 47.803811 105.954066 47.015259 104.421147 L 39.058352 89.754744 L 39.058352 137.166483 C 39.058352 138.855754 38.677672 140.082769 37.909513 140.850929 C 37.141353 141.615689 35.904141 141.999768 34.194477 141.999768 Z M 168.605349 141.999768 L 126.026894 141.999768 C 124.341022 141.999768 123.114007 141.615689 122.345848 140.850929 C 121.577689 140.082769 121.193609 138.855754 121.193609 137.166483 L 121.193609 121.38523 C 121.193609 119.675566 121.577689 118.44855 122.345848 117.704183 C 123.114007 116.936024 124.341022 116.551945 126.026894 116.551945 L 162.259538 116.551945 C 163.421973 116.551945 164.298898 116.167865 164.890313 115.399706 C 165.481728 114.634945 165.777435 113.713834 165.777435 112.639771 C 165.777435 111.106851 165.481728 109.988602 164.890313 109.285022 C 164.298898 108.561049 163.421973 108.156576 162.259538 108.068204 L 142.073265 105.24029 C 135.781837 104.342971 130.73102 102.283217 126.914016 99.061027 C 123.100411 95.818443 121.193609 90.424334 121.193609 82.885497 L 121.193609 68.745928 C 121.193609 61.118719 123.661235 55.265753 128.59309 51.190431 C 133.524944 47.091316 140.353404 45.041758 149.07507 45.041758 L 186.78625 45.041758 C 188.475521 45.041758 189.702536 45.425838 190.470695 46.190598 C 191.235456 46.958757 191.619535 48.185772 191.619535 49.875043 L 191.619535 65.918015 C 191.619535 67.627679 191.235456 68.86829 190.470695 69.63305 C 189.702536 70.380816 188.475521 70.7513 186.78625 70.7513 L 155.386892 70.7513 C 154.227855 70.7513 153.327137 71.135379 152.691537 71.903539 C 152.079728 72.671698 151.770425 73.633596 151.770425 74.796032 C 151.770425 75.958468 152.079728 76.944159 152.691537 77.756504 C 153.327137 78.565451 154.227855 79.017509 155.386892 79.102482 L 175.477995 81.801236 C 181.74563 82.698555 186.810043 84.768506 190.667834 88.014489 C 194.546018 91.236679 196.48681 96.617193 196.48681 104.15603 L 196.48681 118.295598 C 196.48681 125.922807 193.988593 131.78597 188.98876 135.885085 C 184.01272 139.960408 177.218249 141.999768 168.605349 141.999768 Z M 168.605349 141.999768" stroke-linejoin="miter" fill="none" transform="matrix(1.149257, 0, 0, 1.149257, 57.490815, 79.469812)" stroke-linecap="butt"/><path stroke-miterlimit="4" stroke-opacity="1" stroke-width="5.40496" stroke="#0a0a0a" d="M 15.386089 23.270297 C 16.276609 23.474233 17.16713 23.875308 18.057651 24.47352 C 18.95497 25.071733 19.702736 25.850089 20.300948 26.808588 C 20.90256 27.767088 21.205065 28.912529 21.205065 30.238113 C 21.205065 32.070139 20.770001 33.603059 19.896475 34.84367 C 19.033145 36.080882 17.877508 37.005392 16.43296 37.617201 C 14.995211 38.22561 13.407909 38.54511 11.677851 38.568902 C 10.070155 38.568902 8.564427 38.252801 7.157268 37.617201 C 5.756907 36.9816 4.62846 36.114872 3.775328 35.020415 C 2.922195 33.91916 2.497328 32.692144 2.497328 31.339368 C 2.497328 30.829528 2.572105 30.513427 2.721658 30.387667 C 2.87461 30.255108 3.156722 30.190528 3.561195 30.190528 L 6.970326 30.190528 C 7.300023 30.190528 7.520954 30.251709 7.633119 30.367273 C 7.752081 30.479438 7.847251 30.703768 7.922028 31.040262 C 8.129363 31.65207 8.469257 32.114325 8.941708 32.433825 C 9.41416 32.749926 9.924001 32.974256 10.474628 33.106814 C 11.021856 33.229176 11.497707 33.293756 11.902181 33.293756 C 12.439212 33.293756 12.986441 33.18499 13.547265 32.974256 C 14.111488 32.756724 14.580541 32.423628 14.947626 31.974969 C 15.314711 31.52631 15.498253 30.958688 15.498253 30.275502 C 15.498253 28.256535 14.148876 27.247051 11.443324 27.247051 L 9.726862 27.247051 C 9.2884 27.247051 9.006288 27.175673 8.877129 27.02612 C 8.751368 26.869769 8.690187 26.574062 8.690187 26.135599 L 8.690187 23.688366 C 8.690187 23.154734 8.843139 22.723069 9.145645 22.389973 L 13.163185 18.178693 L 4.869785 18.178693 C 4.431322 18.178693 4.135615 18.080124 3.982663 17.879587 C 3.83311 17.675651 3.758333 17.403736 3.758333 17.067242 L 3.758333 13.974211 C 3.758333 13.613924 3.83311 13.33861 3.982663 13.155068 C 4.135615 12.961329 4.431322 12.862759 4.869785 12.862759 L 19.478406 12.862759 C 19.91347 12.862759 20.205778 12.961329 20.355331 13.155068 C 20.511682 13.33861 20.589858 13.613924 20.589858 13.974211 L 20.589858 17.067242 C 20.589858 17.322162 20.559267 17.522699 20.494687 17.665454 C 20.433507 17.808209 20.324741 17.978156 20.16839 18.178693 Z M 15.386089 23.270297" stroke-linejoin="miter" fill="none" transform="matrix(1.149257, 0, 0, 1.149257, 289.497115, 101.037694)" stroke-linecap="butt"/><g fill-opacity="1" fill="#ed1c24"><g transform="translate(291.131215, 144.709466)"><g><path d="M 16.046875 -16.921875 C 17.078125 -16.691406 18.101562 -16.234375 19.125 -15.546875 C 20.15625 -14.859375 21.015625 -13.960938 21.703125 -12.859375 C 22.390625 -11.765625 22.734375 -10.453125 22.734375 -8.921875 C 22.734375 -6.816406 22.234375 -5.050781 21.234375 -3.625 C 20.234375 -2.207031 18.90625 -1.144531 17.25 -0.4375 C 15.601562 0.257812 13.78125 0.625 11.78125 0.65625 C 9.9375 0.65625 8.207031 0.289062 6.59375 -0.4375 C 4.976562 -1.164062 3.679688 -2.160156 2.703125 -3.421875 C 1.722656 -4.679688 1.234375 -6.09375 1.234375 -7.65625 C 1.234375 -8.238281 1.320312 -8.601562 1.5 -8.75 C 1.675781 -8.894531 2 -8.96875 2.46875 -8.96875 L 6.375 -8.96875 C 6.757812 -8.96875 7.015625 -8.898438 7.140625 -8.765625 C 7.273438 -8.640625 7.382812 -8.382812 7.46875 -8 C 7.707031 -7.300781 8.097656 -6.765625 8.640625 -6.390625 C 9.179688 -6.023438 9.765625 -5.769531 10.390625 -5.625 C 11.023438 -5.476562 11.578125 -5.40625 12.046875 -5.40625 C 12.660156 -5.40625 13.289062 -5.53125 13.9375 -5.78125 C 14.582031 -6.03125 15.117188 -6.410156 15.546875 -6.921875 C 15.972656 -7.429688 16.1875 -8.082031 16.1875 -8.875 C 16.1875 -11.195312 14.628906 -12.359375 11.515625 -12.359375 L 9.546875 -12.359375 C 9.046875 -12.359375 8.722656 -12.445312 8.578125 -12.625 C 8.429688 -12.800781 8.359375 -13.132812 8.359375 -13.625 L 8.359375 -16.4375 C 8.359375 -17.0625 8.53125 -17.5625 8.875 -17.9375 L 13.5 -22.78125 L 3.953125 -22.78125 C 3.453125 -22.78125 3.113281 -22.894531 2.9375 -23.125 C 2.769531 -23.363281 2.6875 -23.671875 2.6875 -24.046875 L 2.6875 -27.609375 C 2.6875 -28.023438 2.769531 -28.34375 2.9375 -28.5625 C 3.113281 -28.78125 3.453125 -28.890625 3.953125 -28.890625 L 20.75 -28.890625 C 21.25 -28.890625 21.585938 -28.78125 21.765625 -28.5625 C 21.941406 -28.34375 22.03125 -28.023438 22.03125 -27.609375 L 22.03125 -24.046875 C 22.03125 -23.753906 21.992188 -23.523438 21.921875 -23.359375 C 21.847656 -23.203125 21.722656 -23.007812 21.546875 -22.78125 Z M 16.046875 -16.921875"/></g></g></g></svg>