<svg version="1.0" preserveAspectRatio="xMidYMid meet" viewBox="17.055359279999998 21.31578879699248 205.61183132 57.315787654135335" zoomAndPan="magnify" xmlns:xlink="http://www.w3.org/1999/xlink" xmlns="http://www.w3.org/2000/svg" style="max-height: 500px" width="205.61183132" height="57.315787654135335"><defs><g/><clipPath id="9a564b3b91"><path clip-rule="nonzero" d="M 10.167969 8.597656 L 226.867188 8.597656 L 226.867188 93.253906 L 10.167969 93.253906 Z M 10.167969 8.597656"/></clipPath><clipPath id="5c4e827337"><path clip-rule="nonzero" d="M 140 0 L 236.195312 0 L 236.195312 88 L 140 88 Z M 140 0"/></clipPath></defs><g clip-path="url(#9a564b3b91)"><path fill-rule="nonzero" fill-opacity="1" d="M 10.167969 8.597656 L 226.765625 8.597656 L 226.765625 93.253906 L 10.167969 93.253906 Z M 10.167969 8.597656" fill="#ffffff"/></g><g fill-opacity="1" fill="#0a0a0a"><g transform="translate(18.070298, 60.501165)"><g><path d="M 20.84375 -34.234375 L 24.921875 -15.9375 L 35.140625 -34.234375 L 44 -34.234375 L 43.765625 0 L 34.875 0 L 35.5 -19.703125 L 35.421875 -19.703125 L 24.0625 0 L 20.53125 0 L 15.796875 -19.703125 L 15.703125 -19.703125 L 9.71875 0 L 0.859375 0 L 12.078125 -34.234375 Z M 20.84375 -34.234375"/></g></g></g><g fill-opacity="1" fill="#0a0a0a"><g transform="translate(57.892879, 60.501165)"><g><path d="M 17.203125 -34.234375 L 11.8125 0 L 2.90625 0 L 8.3125 -34.234375 Z M 17.203125 -34.234375"/></g></g></g><g fill-opacity="1" fill="#0a0a0a"><g transform="translate(67.791413, 60.501165)"><g><path d="M 20.984375 -34.234375 C 23.828125 -34.234375 26.375 -33.601562 28.625 -32.34375 C 30.882812 -31.09375 32.65625 -29.363281 33.9375 -27.15625 C 35.226562 -24.945312 35.875 -22.582031 35.875 -20.0625 C 35.875 -16.613281 34.941406 -13.335938 33.078125 -10.234375 C 31.210938 -7.128906 28.691406 -4.644531 25.515625 -2.78125 C 22.335938 -0.925781 19.023438 0 15.578125 0 L 2.90625 0 L 8.3125 -34.234375 Z M 12.984375 -7.53125 L 14.71875 -7.53125 C 18.3125 -7.53125 21.175781 -8.597656 23.3125 -10.734375 C 25.445312 -12.867188 26.515625 -15.632812 26.515625 -19.03125 C 26.515625 -21.320312 25.796875 -23.171875 24.359375 -24.578125 C 22.921875 -25.992188 20.78125 -26.703125 17.9375 -26.703125 L 16.03125 -26.703125 Z M 12.984375 -7.53125"/></g></g></g><g fill-opacity="1" fill="#0a0a0a"><g transform="translate(97.124688, 60.501165)"><g><path d="M 20.984375 -34.234375 C 23.828125 -34.234375 26.375 -33.601562 28.625 -32.34375 C 30.882812 -31.09375 32.65625 -29.363281 33.9375 -27.15625 C 35.226562 -24.945312 35.875 -22.582031 35.875 -20.0625 C 35.875 -16.613281 34.941406 -13.335938 33.078125 -10.234375 C 31.210938 -7.128906 28.691406 -4.644531 25.515625 -2.78125 C 22.335938 -0.925781 19.023438 0 15.578125 0 L 2.90625 0 L 8.3125 -34.234375 Z M 12.984375 -7.53125 L 14.71875 -7.53125 C 18.3125 -7.53125 21.175781 -8.597656 23.3125 -10.734375 C 25.445312 -12.867188 26.515625 -15.632812 26.515625 -19.03125 C 26.515625 -21.320312 25.796875 -23.171875 24.359375 -24.578125 C 22.921875 -25.992188 20.78125 -26.703125 17.9375 -26.703125 L 16.03125 -26.703125 Z M 12.984375 -7.53125"/></g></g></g><g fill-opacity="1" fill="#0a0a0a"><g transform="translate(126.457963, 60.501165)"><g><path d="M 17.203125 -34.234375 L 12.984375 -7.53125 L 23.65625 -7.53125 L 22.46875 0 L 2.90625 0 L 8.3125 -34.234375 Z M 17.203125 -34.234375"/></g></g></g><g fill-opacity="1" fill="#0a0a0a"><g transform="translate(144.121305, 60.501165)"><g><path d="M 27.78125 -34.234375 L 26.609375 -26.703125 L 16.03125 -26.703125 L 15.125 -20.984375 L 25.15625 -20.984375 L 23.96875 -13.4375 L 13.9375 -13.4375 L 12.984375 -7.53125 L 23.5625 -7.53125 L 22.390625 0 L 2.90625 0 L 8.3125 -34.234375 Z M 27.78125 -34.234375"/></g></g></g><g clip-path="url(#5c4e827337)"><path stroke-miterlimit="4" stroke-opacity="1" stroke-width="5.399997" stroke="#000000" d="M 23.566758 11.724456 C 27.869878 11.724456 31.906921 12.830055 35.673299 15.032078 L 30.232466 23.133689 C 28.346983 21.353721 26.18166 20.463736 23.736497 20.463736 C 22.451983 20.463736 21.282158 20.826152 20.23161 21.555573 C 19.190236 22.284993 18.671843 23.184152 18.671843 24.253051 C 18.671843 25.032935 19.043435 25.716479 19.791205 26.308273 C 20.538975 26.900067 21.906065 27.478098 23.892474 28.042367 C 26.589952 28.854363 28.544248 29.648009 29.750773 30.409542 C 30.966474 31.175662 31.906921 32.11611 32.576703 33.235472 C 33.251073 34.354834 33.590552 35.754036 33.590552 37.428491 C 33.590552 39.841542 32.971232 42.401394 31.728007 45.108048 C 30.489369 47.810114 28.452497 49.961674 25.621979 51.567316 C 22.791462 53.163783 19.442551 53.998717 15.57066 54.06753 C 10.597757 54.06753 6.12031 52.539877 2.13373 49.484569 L 7.941567 41.048067 C 10.721621 43.823534 13.584252 45.213561 16.534045 45.213561 C 18.167213 45.213561 19.543477 44.786919 20.662839 43.938223 C 21.782201 43.080351 22.341882 41.993102 22.341882 40.681063 C 22.341882 38.974495 20.635314 37.657869 17.226765 36.735771 C 13.102559 35.602647 10.432606 34.386946 9.216905 33.093258 C 8.01038 31.790394 7.409411 30.0563 7.409411 27.88639 C 7.409411 23.335542 8.960003 19.509526 12.070361 16.399168 C 15.185306 13.284222 19.015909 11.724456 23.566758 11.724456 Z M 63.730747 20.633475 C 63.730747 23.009826 63.212354 25.133861 62.180155 27.000993 C 61.147957 28.863538 59.780867 30.24439 58.078887 31.138962 C 59.675353 31.565604 60.927754 32.542752 61.826914 34.070406 C 62.739836 35.598059 63.194003 37.378028 63.194003 39.405725 C 63.194003 42.107791 62.391182 44.649293 60.78554 47.034818 C 59.189073 49.415756 57.000813 51.273713 54.225346 52.60869 C 51.454466 53.939079 48.458797 54.599686 45.229163 54.599686 C 42.311482 54.599686 39.792917 54.076705 37.678057 53.026157 C 35.55861 51.975608 33.897917 50.347028 32.691392 48.145005 C 31.484867 45.938394 30.87931 43.791421 30.87931 41.699499 C 30.87931 41.410483 30.89766 41.11688 30.934361 40.814102 C 30.966474 40.511324 31.003174 40.213133 31.035287 39.928705 L 41.701338 39.928705 C 41.664637 40.213133 41.637112 40.447098 41.623349 40.6306 C 41.604999 40.804927 41.595824 40.924203 41.595824 40.997604 C 41.595824 42.419744 42.054579 43.552869 42.976676 44.39239 C 43.903361 45.227324 45.045661 45.644791 46.398988 45.644791 C 48.215657 45.644791 49.752486 45.039234 51.009474 43.832709 C 52.266462 42.617009 52.894956 41.158168 52.894956 39.460775 C 52.894956 38.102861 52.422439 37.001849 51.477404 36.153153 C 50.541544 35.290693 49.435945 34.864051 48.156019 34.864051 C 47.550462 34.864051 46.926556 34.969565 46.284299 35.189767 L 47.403661 28.198343 L 48.311995 28.198343 C 49.991038 28.198343 51.321427 27.702888 52.312338 26.711977 C 53.307836 25.716479 53.807879 24.487016 53.807879 23.028176 C 53.807879 21.995977 53.477575 21.188569 52.816968 20.60595 C 52.160949 20.014156 51.31684 19.720553 50.293816 19.720553 C 49.078116 19.720553 47.995454 20.11967 47.050419 20.917903 C 46.114559 21.716137 45.522766 22.863024 45.279626 24.353977 L 35.567785 24.353977 C 36.705497 20.312347 38.756131 17.110238 41.724275 14.74765 C 44.692419 12.375888 48.311995 11.1923 52.583003 11.1923 C 55.959439 11.1923 58.661505 12.040997 60.684614 13.733802 C 62.712311 15.417432 63.730747 17.715794 63.730747 20.633475 Z M 63.730747 20.633475" stroke-linejoin="miter" fill="none" transform="matrix(0.85149, 0, 0, 0.85149, 164.300339, 15.372217)" stroke-linecap="butt"/></g><g fill-opacity="1" fill="#38b6ff"><g transform="translate(164.300339, 60.501165)"><g><path d="M 20.0625 -35.140625 C 23.726562 -35.140625 27.164062 -34.203125 30.375 -32.328125 L 25.75 -25.421875 C 24.144531 -26.941406 22.296875 -27.703125 20.203125 -27.703125 C 19.117188 -27.703125 18.128906 -27.390625 17.234375 -26.765625 C 16.335938 -26.148438 15.890625 -25.382812 15.890625 -24.46875 C 15.890625 -23.800781 16.207031 -23.21875 16.84375 -22.71875 C 17.476562 -22.226562 18.644531 -21.738281 20.34375 -21.25 C 22.644531 -20.550781 24.304688 -19.875 25.328125 -19.21875 C 26.359375 -18.570312 27.160156 -17.769531 27.734375 -16.8125 C 28.316406 -15.863281 28.609375 -14.679688 28.609375 -13.265625 C 28.609375 -11.203125 28.078125 -9.019531 27.015625 -6.71875 C 25.953125 -4.414062 24.21875 -2.582031 21.8125 -1.21875 C 19.40625 0.132812 16.554688 0.84375 13.265625 0.90625 C 9.023438 0.90625 5.207031 -0.394531 1.8125 -3 L 6.765625 -10.171875 C 9.128906 -7.804688 11.566406 -6.625 14.078125 -6.625 C 15.472656 -6.625 16.644531 -6.988281 17.59375 -7.71875 C 18.550781 -8.445312 19.03125 -9.367188 19.03125 -10.484375 C 19.03125 -11.941406 17.578125 -13.0625 14.671875 -13.84375 C 11.160156 -14.8125 8.890625 -15.847656 7.859375 -16.953125 C 6.828125 -18.054688 6.3125 -19.535156 6.3125 -21.390625 C 6.3125 -25.265625 7.632812 -28.523438 10.28125 -31.171875 C 12.925781 -33.816406 16.1875 -35.140625 20.0625 -35.140625 Z M 20.0625 -35.140625"/></g></g></g><g fill-opacity="1" fill="#38b6ff"><g transform="translate(187.412668, 60.501165)"><g><path d="M 31.15625 -27.5625 C 31.15625 -25.53125 30.710938 -23.71875 29.828125 -22.125 C 28.953125 -20.539062 27.785156 -19.367188 26.328125 -18.609375 C 27.691406 -18.253906 28.757812 -17.425781 29.53125 -16.125 C 30.300781 -14.820312 30.6875 -13.304688 30.6875 -11.578125 C 30.6875 -9.273438 30.003906 -7.109375 28.640625 -5.078125 C 27.285156 -3.054688 25.425781 -1.476562 23.0625 -0.34375 C 20.707031 0.789062 18.148438 1.359375 15.390625 1.359375 C 12.910156 1.359375 10.769531 0.910156 8.96875 0.015625 C 7.164062 -0.867188 5.75 -2.25 4.71875 -4.125 C 3.6875 -6.007812 3.171875 -7.84375 3.171875 -9.625 C 3.171875 -9.863281 3.1875 -10.113281 3.21875 -10.375 C 3.25 -10.632812 3.28125 -10.882812 3.3125 -11.125 L 12.390625 -11.125 C 12.359375 -10.882812 12.335938 -10.6875 12.328125 -10.53125 C 12.316406 -10.382812 12.3125 -10.28125 12.3125 -10.21875 C 12.3125 -9.007812 12.703125 -8.046875 13.484375 -7.328125 C 14.273438 -6.617188 15.242188 -6.265625 16.390625 -6.265625 C 17.929688 -6.265625 19.238281 -6.78125 20.3125 -7.8125 C 21.394531 -8.84375 21.9375 -10.082031 21.9375 -11.53125 C 21.9375 -12.6875 21.535156 -13.625 20.734375 -14.34375 C 19.929688 -15.070312 18.984375 -15.4375 17.890625 -15.4375 C 17.378906 -15.4375 16.847656 -15.347656 16.296875 -15.171875 L 17.25 -21.109375 L 18.03125 -21.109375 C 19.445312 -21.109375 20.578125 -21.53125 21.421875 -22.375 C 22.273438 -23.226562 22.703125 -24.273438 22.703125 -25.515625 C 22.703125 -26.390625 22.421875 -27.078125 21.859375 -27.578125 C 21.296875 -28.078125 20.578125 -28.328125 19.703125 -28.328125 C 18.671875 -28.328125 17.753906 -27.988281 16.953125 -27.3125 C 16.148438 -26.632812 15.644531 -25.660156 15.4375 -24.390625 L 7.171875 -24.390625 C 8.140625 -27.835938 9.882812 -30.566406 12.40625 -32.578125 C 14.9375 -34.585938 18.019531 -35.59375 21.65625 -35.59375 C 24.53125 -35.59375 26.832031 -34.875 28.5625 -33.4375 C 30.289062 -32 31.15625 -30.039062 31.15625 -27.5625 Z M 31.15625 -27.5625"/></g></g></g><g fill-opacity="1" fill="#0a0a0a"><g transform="translate(27.402924, 76.28981)"><g><path d="M 4.515625 -7.40625 L 5.390625 -3.453125 L 7.609375 -7.40625 L 9.515625 -7.40625 L 9.46875 0 L 7.546875 0 L 7.6875 -4.265625 L 7.671875 -4.265625 L 5.203125 0 L 4.4375 0 L 3.421875 -4.265625 L 3.40625 -4.265625 L 2.109375 0 L 0.1875 0 L 2.609375 -7.40625 Z M 4.515625 -7.40625"/></g></g></g><g fill-opacity="1" fill="#0a0a0a"><g transform="translate(37.820356, 76.28981)"><g><path d="M 3.71875 -7.40625 L 2.5625 0 L 0.625 0 L 1.796875 -7.40625 Z M 3.71875 -7.40625"/></g></g></g><g fill-opacity="1" fill="#0a0a0a"><g transform="translate(41.76157, 76.28981)"><g><path d="M 4.546875 -7.40625 C 5.160156 -7.40625 5.707031 -7.269531 6.1875 -7 C 6.675781 -6.726562 7.0625 -6.351562 7.34375 -5.875 C 7.625 -5.394531 7.765625 -4.882812 7.765625 -4.34375 C 7.765625 -3.59375 7.5625 -2.878906 7.15625 -2.203125 C 6.757812 -1.535156 6.210938 -1 5.515625 -0.59375 C 4.828125 -0.195312 4.113281 0 3.375 0 L 0.625 0 L 1.796875 -7.40625 Z M 2.8125 -1.625 L 3.1875 -1.625 C 3.96875 -1.625 4.585938 -1.851562 5.046875 -2.3125 C 5.503906 -2.78125 5.734375 -3.382812 5.734375 -4.125 C 5.734375 -4.613281 5.578125 -5.007812 5.265625 -5.3125 C 4.960938 -5.625 4.5 -5.78125 3.875 -5.78125 L 3.46875 -5.78125 Z M 2.8125 -1.625"/></g></g></g><g fill-opacity="1" fill="#0a0a0a"><g transform="translate(49.90889, 76.28981)"><g><path d="M 4.546875 -7.40625 C 5.160156 -7.40625 5.707031 -7.269531 6.1875 -7 C 6.675781 -6.726562 7.0625 -6.351562 7.34375 -5.875 C 7.625 -5.394531 7.765625 -4.882812 7.765625 -4.34375 C 7.765625 -3.59375 7.5625 -2.878906 7.15625 -2.203125 C 6.757812 -1.535156 6.210938 -1 5.515625 -0.59375 C 4.828125 -0.195312 4.113281 0 3.375 0 L 0.625 0 L 1.796875 -7.40625 Z M 2.8125 -1.625 L 3.1875 -1.625 C 3.96875 -1.625 4.585938 -1.851562 5.046875 -2.3125 C 5.503906 -2.78125 5.734375 -3.382812 5.734375 -4.125 C 5.734375 -4.613281 5.578125 -5.007812 5.265625 -5.3125 C 4.960938 -5.625 4.5 -5.78125 3.875 -5.78125 L 3.46875 -5.78125 Z M 2.8125 -1.625"/></g></g></g><g fill-opacity="1" fill="#0a0a0a"><g transform="translate(58.056214, 76.28981)"><g><path d="M 3.71875 -7.40625 L 2.8125 -1.625 L 5.125 -1.625 L 4.859375 0 L 0.625 0 L 1.796875 -7.40625 Z M 3.71875 -7.40625"/></g></g></g><g fill-opacity="1" fill="#0a0a0a"><g transform="translate(63.677906, 76.28981)"><g><path d="M 6.015625 -7.40625 L 5.765625 -5.78125 L 3.46875 -5.78125 L 3.265625 -4.546875 L 5.4375 -4.546875 L 5.1875 -2.90625 L 3.015625 -2.90625 L 2.8125 -1.625 L 5.09375 -1.625 L 4.84375 0 L 0.625 0 L 1.796875 -7.40625 Z M 6.015625 -7.40625"/></g></g></g><g fill-opacity="1" fill="#0a0a0a"><g transform="translate(69.840103, 76.28981)"><g/></g></g><g fill-opacity="1" fill="#0a0a0a"><g transform="translate(73.968038, 76.28981)"><g><path d="M 4.34375 -7.609375 C 5.132812 -7.609375 5.878906 -7.40625 6.578125 -7 L 5.578125 -5.5 C 5.222656 -5.832031 4.820312 -6 4.375 -6 C 4.132812 -6 3.914062 -5.929688 3.71875 -5.796875 C 3.53125 -5.660156 3.4375 -5.492188 3.4375 -5.296875 C 3.4375 -5.148438 3.503906 -5.019531 3.640625 -4.90625 C 3.785156 -4.800781 4.039062 -4.695312 4.40625 -4.59375 C 4.90625 -4.445312 5.265625 -4.300781 5.484375 -4.15625 C 5.703125 -4.019531 5.875 -3.847656 6 -3.640625 C 6.125 -3.429688 6.1875 -3.175781 6.1875 -2.875 C 6.1875 -2.425781 6.070312 -1.953125 5.84375 -1.453125 C 5.613281 -0.953125 5.238281 -0.554688 4.71875 -0.265625 C 4.195312 0.0234375 3.582031 0.179688 2.875 0.203125 C 1.957031 0.203125 1.128906 -0.0820312 0.390625 -0.65625 L 1.46875 -2.203125 C 1.976562 -1.691406 2.503906 -1.4375 3.046875 -1.4375 C 3.347656 -1.4375 3.601562 -1.515625 3.8125 -1.671875 C 4.019531 -1.828125 4.125 -2.023438 4.125 -2.265625 C 4.125 -2.578125 3.804688 -2.820312 3.171875 -3 C 2.410156 -3.207031 1.914062 -3.429688 1.6875 -3.671875 C 1.46875 -3.910156 1.359375 -4.226562 1.359375 -4.625 C 1.359375 -5.46875 1.644531 -6.175781 2.21875 -6.75 C 2.800781 -7.320312 3.507812 -7.609375 4.34375 -7.609375 Z M 4.34375 -7.609375"/></g></g></g><g fill-opacity="1" fill="#0a0a0a"><g transform="translate(80.769017, 76.28981)"><g><path d="M 6.703125 -4.921875 C 6.554688 -5.179688 6.34375 -5.378906 6.0625 -5.515625 C 5.78125 -5.660156 5.472656 -5.734375 5.140625 -5.734375 C 4.515625 -5.734375 3.96875 -5.492188 3.5 -5.015625 C 3.039062 -4.546875 2.8125 -3.984375 2.8125 -3.328125 C 2.8125 -2.828125 2.96875 -2.425781 3.28125 -2.125 C 3.59375 -1.820312 4.007812 -1.671875 4.53125 -1.671875 C 4.84375 -1.671875 5.15625 -1.738281 5.46875 -1.875 C 5.789062 -2.019531 6.070312 -2.210938 6.3125 -2.453125 L 5.953125 -0.140625 C 5.804688 -0.0976562 5.5625 -0.03125 5.21875 0.0625 C 4.875 0.15625 4.535156 0.203125 4.203125 0.203125 C 3.597656 0.203125 3.035156 0.0703125 2.515625 -0.1875 C 2.003906 -0.445312 1.585938 -0.8125 1.265625 -1.28125 C 0.953125 -1.75 0.789062 -2.296875 0.78125 -2.921875 C 0.78125 -3.753906 0.988281 -4.523438 1.40625 -5.234375 C 1.820312 -5.953125 2.394531 -6.523438 3.125 -6.953125 C 3.851562 -7.390625 4.601562 -7.609375 5.375 -7.609375 C 5.925781 -7.609375 6.492188 -7.484375 7.078125 -7.234375 Z M 6.703125 -4.921875"/></g></g></g><g fill-opacity="1" fill="#0a0a0a"><g transform="translate(88.012227, 76.28981)"><g><path d="M 3.71875 -7.40625 L 3.265625 -4.546875 L 6.046875 -4.546875 L 6.5 -7.40625 L 8.4375 -7.40625 L 7.265625 0 L 5.34375 0 L 5.8125 -3.03125 L 3.03125 -3.03125 L 2.5625 0 L 0.625 0 L 1.796875 -7.40625 Z M 3.71875 -7.40625"/></g></g></g><g fill-opacity="1" fill="#0a0a0a"><g transform="translate(96.66074, 76.28981)"><g><path d="M 9.109375 -4.421875 C 9.109375 -3.703125 8.898438 -2.957031 8.484375 -2.1875 C 8.078125 -1.425781 7.492188 -0.828125 6.734375 -0.390625 C 5.984375 0.0351562 5.175781 0.25 4.3125 0.25 C 3.269531 0.25 2.425781 -0.0546875 1.78125 -0.671875 C 1.132812 -1.285156 0.8125 -2.09375 0.8125 -3.09375 C 0.8125 -3.914062 1.023438 -4.675781 1.453125 -5.375 C 1.890625 -6.070312 2.484375 -6.625 3.234375 -7.03125 C 3.984375 -7.445312 4.757812 -7.65625 5.5625 -7.65625 C 6.195312 -7.65625 6.789062 -7.515625 7.34375 -7.234375 C 7.894531 -6.960938 8.328125 -6.582031 8.640625 -6.09375 C 8.953125 -5.601562 9.109375 -5.046875 9.109375 -4.421875 Z M 4.609375 -1.625 C 5.054688 -1.625 5.46875 -1.742188 5.84375 -1.984375 C 6.21875 -2.234375 6.515625 -2.550781 6.734375 -2.9375 C 6.960938 -3.332031 7.078125 -3.71875 7.078125 -4.09375 C 7.078125 -4.570312 6.894531 -4.972656 6.53125 -5.296875 C 6.175781 -5.617188 5.753906 -5.78125 5.265625 -5.78125 C 4.867188 -5.78125 4.476562 -5.675781 4.09375 -5.46875 C 3.71875 -5.257812 3.414062 -4.976562 3.1875 -4.625 C 2.957031 -4.269531 2.84375 -3.878906 2.84375 -3.453125 C 2.84375 -2.921875 3.003906 -2.484375 3.328125 -2.140625 C 3.660156 -1.796875 4.085938 -1.625 4.609375 -1.625 Z M 4.609375 -1.625"/></g></g></g><g fill-opacity="1" fill="#0a0a0a"><g transform="translate(106.134754, 76.28981)"><g><path d="M 9.109375 -4.421875 C 9.109375 -3.703125 8.898438 -2.957031 8.484375 -2.1875 C 8.078125 -1.425781 7.492188 -0.828125 6.734375 -0.390625 C 5.984375 0.0351562 5.175781 0.25 4.3125 0.25 C 3.269531 0.25 2.425781 -0.0546875 1.78125 -0.671875 C 1.132812 -1.285156 0.8125 -2.09375 0.8125 -3.09375 C 0.8125 -3.914062 1.023438 -4.675781 1.453125 -5.375 C 1.890625 -6.070312 2.484375 -6.625 3.234375 -7.03125 C 3.984375 -7.445312 4.757812 -7.65625 5.5625 -7.65625 C 6.195312 -7.65625 6.789062 -7.515625 7.34375 -7.234375 C 7.894531 -6.960938 8.328125 -6.582031 8.640625 -6.09375 C 8.953125 -5.601562 9.109375 -5.046875 9.109375 -4.421875 Z M 4.609375 -1.625 C 5.054688 -1.625 5.46875 -1.742188 5.84375 -1.984375 C 6.21875 -2.234375 6.515625 -2.550781 6.734375 -2.9375 C 6.960938 -3.332031 7.078125 -3.71875 7.078125 -4.09375 C 7.078125 -4.570312 6.894531 -4.972656 6.53125 -5.296875 C 6.175781 -5.617188 5.753906 -5.78125 5.265625 -5.78125 C 4.867188 -5.78125 4.476562 -5.675781 4.09375 -5.46875 C 3.71875 -5.257812 3.414062 -4.976562 3.1875 -4.625 C 2.957031 -4.269531 2.84375 -3.878906 2.84375 -3.453125 C 2.84375 -2.921875 3.003906 -2.484375 3.328125 -2.140625 C 3.660156 -1.796875 4.085938 -1.625 4.609375 -1.625 Z M 4.609375 -1.625"/></g></g></g><g fill-opacity="1" fill="#0a0a0a"><g transform="translate(115.608769, 76.28981)"><g><path d="M 3.71875 -7.40625 L 2.8125 -1.625 L 5.125 -1.625 L 4.859375 0 L 0.625 0 L 1.796875 -7.40625 Z M 3.71875 -7.40625"/></g></g></g><g fill-opacity="1" fill="#0a0a0a"><g transform="translate(121.230455, 76.28981)"><g/></g></g><g fill-opacity="1" fill="#0a0a0a"><g transform="translate(125.358389, 76.28981)"><g><path d="M 4.34375 -7.609375 C 5.132812 -7.609375 5.878906 -7.40625 6.578125 -7 L 5.578125 -5.5 C 5.222656 -5.832031 4.820312 -6 4.375 -6 C 4.132812 -6 3.914062 -5.929688 3.71875 -5.796875 C 3.53125 -5.660156 3.4375 -5.492188 3.4375 -5.296875 C 3.4375 -5.148438 3.503906 -5.019531 3.640625 -4.90625 C 3.785156 -4.800781 4.039062 -4.695312 4.40625 -4.59375 C 4.90625 -4.445312 5.265625 -4.300781 5.484375 -4.15625 C 5.703125 -4.019531 5.875 -3.847656 6 -3.640625 C 6.125 -3.429688 6.1875 -3.175781 6.1875 -2.875 C 6.1875 -2.425781 6.070312 -1.953125 5.84375 -1.453125 C 5.613281 -0.953125 5.238281 -0.554688 4.71875 -0.265625 C 4.195312 0.0234375 3.582031 0.179688 2.875 0.203125 C 1.957031 0.203125 1.128906 -0.0820312 0.390625 -0.65625 L 1.46875 -2.203125 C 1.976562 -1.691406 2.503906 -1.4375 3.046875 -1.4375 C 3.347656 -1.4375 3.601562 -1.515625 3.8125 -1.671875 C 4.019531 -1.828125 4.125 -2.023438 4.125 -2.265625 C 4.125 -2.578125 3.804688 -2.820312 3.171875 -3 C 2.410156 -3.207031 1.914062 -3.429688 1.6875 -3.671875 C 1.46875 -3.910156 1.359375 -4.226562 1.359375 -4.625 C 1.359375 -5.46875 1.644531 -6.175781 2.21875 -6.75 C 2.800781 -7.320312 3.507812 -7.609375 4.34375 -7.609375 Z M 4.34375 -7.609375"/></g></g></g><g fill-opacity="1" fill="#0a0a0a"><g transform="translate(132.159369, 76.28981)"><g><path d="M 4.796875 -7.40625 C 5.515625 -7.40625 6.078125 -7.242188 6.484375 -6.921875 C 6.898438 -6.609375 7.109375 -6.140625 7.109375 -5.515625 C 7.109375 -5.023438 7 -4.519531 6.78125 -4 C 6.5625 -3.476562 6.207031 -3.085938 5.71875 -2.828125 C 5.238281 -2.566406 4.695312 -2.441406 4.09375 -2.453125 L 2.953125 -2.453125 L 2.5625 0 L 0.625 0 L 1.796875 -7.40625 Z M 3.484375 -5.859375 L 3.1875 -4.015625 L 3.671875 -4.015625 C 4.210938 -4.015625 4.578125 -4.109375 4.765625 -4.296875 C 4.960938 -4.492188 5.0625 -4.789062 5.0625 -5.1875 C 5.0625 -5.425781 4.976562 -5.597656 4.8125 -5.703125 C 4.65625 -5.804688 4.398438 -5.859375 4.046875 -5.859375 Z M 3.484375 -5.859375"/></g></g></g><g fill-opacity="1" fill="#0a0a0a"><g transform="translate(139.4124, 76.28981)"><g><path d="M 9.109375 -4.421875 C 9.109375 -3.703125 8.898438 -2.957031 8.484375 -2.1875 C 8.078125 -1.425781 7.492188 -0.828125 6.734375 -0.390625 C 5.984375 0.0351562 5.175781 0.25 4.3125 0.25 C 3.269531 0.25 2.425781 -0.0546875 1.78125 -0.671875 C 1.132812 -1.285156 0.8125 -2.09375 0.8125 -3.09375 C 0.8125 -3.914062 1.023438 -4.675781 1.453125 -5.375 C 1.890625 -6.070312 2.484375 -6.625 3.234375 -7.03125 C 3.984375 -7.445312 4.757812 -7.65625 5.5625 -7.65625 C 6.195312 -7.65625 6.789062 -7.515625 7.34375 -7.234375 C 7.894531 -6.960938 8.328125 -6.582031 8.640625 -6.09375 C 8.953125 -5.601562 9.109375 -5.046875 9.109375 -4.421875 Z M 4.609375 -1.625 C 5.054688 -1.625 5.46875 -1.742188 5.84375 -1.984375 C 6.21875 -2.234375 6.515625 -2.550781 6.734375 -2.9375 C 6.960938 -3.332031 7.078125 -3.71875 7.078125 -4.09375 C 7.078125 -4.570312 6.894531 -4.972656 6.53125 -5.296875 C 6.175781 -5.617188 5.753906 -5.78125 5.265625 -5.78125 C 4.867188 -5.78125 4.476562 -5.675781 4.09375 -5.46875 C 3.71875 -5.257812 3.414062 -4.976562 3.1875 -4.625 C 2.957031 -4.269531 2.84375 -3.878906 2.84375 -3.453125 C 2.84375 -2.921875 3.003906 -2.484375 3.328125 -2.140625 C 3.660156 -1.796875 4.085938 -1.625 4.609375 -1.625 Z M 4.609375 -1.625"/></g></g></g><g fill-opacity="1" fill="#0a0a0a"><g transform="translate(148.886414, 76.28981)"><g><path d="M 4.734375 -7.40625 C 5.398438 -7.40625 5.929688 -7.25 6.328125 -6.9375 C 6.734375 -6.625 6.9375 -6.171875 6.9375 -5.578125 C 6.9375 -4.953125 6.75 -4.394531 6.375 -3.90625 C 6 -3.425781 5.519531 -3.132812 4.9375 -3.03125 L 6.796875 0 L 4.390625 0 L 3.03125 -2.84375 L 3 -2.84375 L 2.5625 0 L 0.625 0 L 1.796875 -7.40625 Z M 3.203125 -4.09375 L 3.46875 -4.09375 C 3.914062 -4.09375 4.265625 -4.1875 4.515625 -4.375 C 4.765625 -4.5625 4.890625 -4.835938 4.890625 -5.203125 C 4.890625 -5.691406 4.492188 -5.9375 3.703125 -5.9375 L 3.5 -5.9375 Z M 3.203125 -4.09375"/></g></g></g><g fill-opacity="1" fill="#0a0a0a"><g transform="translate(156.326165, 76.28981)"><g><path d="M 6.34375 -7.40625 L 6.078125 -5.78125 L 4.484375 -5.78125 L 3.578125 0 L 1.65625 0 L 2.5625 -5.78125 L 0.96875 -5.78125 L 1.234375 -7.40625 Z M 6.34375 -7.40625"/></g></g></g><g fill-opacity="1" fill="#0a0a0a"><g transform="translate(162.321296, 76.28981)"><g/></g></g><g fill-opacity="1" fill="#0a0a0a"><g transform="translate(166.449231, 76.28981)"><g><path d="M 4.34375 -7.609375 C 5.132812 -7.609375 5.878906 -7.40625 6.578125 -7 L 5.578125 -5.5 C 5.222656 -5.832031 4.820312 -6 4.375 -6 C 4.132812 -6 3.914062 -5.929688 3.71875 -5.796875 C 3.53125 -5.660156 3.4375 -5.492188 3.4375 -5.296875 C 3.4375 -5.148438 3.503906 -5.019531 3.640625 -4.90625 C 3.785156 -4.800781 4.039062 -4.695312 4.40625 -4.59375 C 4.90625 -4.445312 5.265625 -4.300781 5.484375 -4.15625 C 5.703125 -4.019531 5.875 -3.847656 6 -3.640625 C 6.125 -3.429688 6.1875 -3.175781 6.1875 -2.875 C 6.1875 -2.425781 6.070312 -1.953125 5.84375 -1.453125 C 5.613281 -0.953125 5.238281 -0.554688 4.71875 -0.265625 C 4.195312 0.0234375 3.582031 0.179688 2.875 0.203125 C 1.957031 0.203125 1.128906 -0.0820312 0.390625 -0.65625 L 1.46875 -2.203125 C 1.976562 -1.691406 2.503906 -1.4375 3.046875 -1.4375 C 3.347656 -1.4375 3.601562 -1.515625 3.8125 -1.671875 C 4.019531 -1.828125 4.125 -2.023438 4.125 -2.265625 C 4.125 -2.578125 3.804688 -2.820312 3.171875 -3 C 2.410156 -3.207031 1.914062 -3.429688 1.6875 -3.671875 C 1.46875 -3.910156 1.359375 -4.226562 1.359375 -4.625 C 1.359375 -5.46875 1.644531 -6.175781 2.21875 -6.75 C 2.800781 -7.320312 3.507812 -7.609375 4.34375 -7.609375 Z M 4.34375 -7.609375"/></g></g></g><g fill-opacity="1" fill="#0a0a0a"><g transform="translate(173.25021, 76.28981)"><g><path d="M 6.703125 -4.921875 C 6.554688 -5.179688 6.34375 -5.378906 6.0625 -5.515625 C 5.78125 -5.660156 5.472656 -5.734375 5.140625 -5.734375 C 4.515625 -5.734375 3.96875 -5.492188 3.5 -5.015625 C 3.039062 -4.546875 2.8125 -3.984375 2.8125 -3.328125 C 2.8125 -2.828125 2.96875 -2.425781 3.28125 -2.125 C 3.59375 -1.820312 4.007812 -1.671875 4.53125 -1.671875 C 4.84375 -1.671875 5.15625 -1.738281 5.46875 -1.875 C 5.789062 -2.019531 6.070312 -2.210938 6.3125 -2.453125 L 5.953125 -0.140625 C 5.804688 -0.0976562 5.5625 -0.03125 5.21875 0.0625 C 4.875 0.15625 4.535156 0.203125 4.203125 0.203125 C 3.597656 0.203125 3.035156 0.0703125 2.515625 -0.1875 C 2.003906 -0.445312 1.585938 -0.8125 1.265625 -1.28125 C 0.953125 -1.75 0.789062 -2.296875 0.78125 -2.921875 C 0.78125 -3.753906 0.988281 -4.523438 1.40625 -5.234375 C 1.820312 -5.953125 2.394531 -6.523438 3.125 -6.953125 C 3.851562 -7.390625 4.601562 -7.609375 5.375 -7.609375 C 5.925781 -7.609375 6.492188 -7.484375 7.078125 -7.234375 Z M 6.703125 -4.921875"/></g></g></g><g fill-opacity="1" fill="#0a0a0a"><g transform="translate(180.49342, 76.28981)"><g><path d="M 9.109375 -4.421875 C 9.109375 -3.703125 8.898438 -2.957031 8.484375 -2.1875 C 8.078125 -1.425781 7.492188 -0.828125 6.734375 -0.390625 C 5.984375 0.0351562 5.175781 0.25 4.3125 0.25 C 3.269531 0.25 2.425781 -0.0546875 1.78125 -0.671875 C 1.132812 -1.285156 0.8125 -2.09375 0.8125 -3.09375 C 0.8125 -3.914062 1.023438 -4.675781 1.453125 -5.375 C 1.890625 -6.070312 2.484375 -6.625 3.234375 -7.03125 C 3.984375 -7.445312 4.757812 -7.65625 5.5625 -7.65625 C 6.195312 -7.65625 6.789062 -7.515625 7.34375 -7.234375 C 7.894531 -6.960938 8.328125 -6.582031 8.640625 -6.09375 C 8.953125 -5.601562 9.109375 -5.046875 9.109375 -4.421875 Z M 4.609375 -1.625 C 5.054688 -1.625 5.46875 -1.742188 5.84375 -1.984375 C 6.21875 -2.234375 6.515625 -2.550781 6.734375 -2.9375 C 6.960938 -3.332031 7.078125 -3.71875 7.078125 -4.09375 C 7.078125 -4.570312 6.894531 -4.972656 6.53125 -5.296875 C 6.175781 -5.617188 5.753906 -5.78125 5.265625 -5.78125 C 4.867188 -5.78125 4.476562 -5.675781 4.09375 -5.46875 C 3.71875 -5.257812 3.414062 -4.976562 3.1875 -4.625 C 2.957031 -4.269531 2.84375 -3.878906 2.84375 -3.453125 C 2.84375 -2.921875 3.003906 -2.484375 3.328125 -2.140625 C 3.660156 -1.796875 4.085938 -1.625 4.609375 -1.625 Z M 4.609375 -1.625"/></g></g></g><g fill-opacity="1" fill="#0a0a0a"><g transform="translate(189.967434, 76.28981)"><g><path d="M 4.734375 -7.40625 C 5.398438 -7.40625 5.929688 -7.25 6.328125 -6.9375 C 6.734375 -6.625 6.9375 -6.171875 6.9375 -5.578125 C 6.9375 -4.953125 6.75 -4.394531 6.375 -3.90625 C 6 -3.425781 5.519531 -3.132812 4.9375 -3.03125 L 6.796875 0 L 4.390625 0 L 3.03125 -2.84375 L 3 -2.84375 L 2.5625 0 L 0.625 0 L 1.796875 -7.40625 Z M 3.203125 -4.09375 L 3.46875 -4.09375 C 3.914062 -4.09375 4.265625 -4.1875 4.515625 -4.375 C 4.765625 -4.5625 4.890625 -4.835938 4.890625 -5.203125 C 4.890625 -5.691406 4.492188 -5.9375 3.703125 -5.9375 L 3.5 -5.9375 Z M 3.203125 -4.09375"/></g></g></g><g fill-opacity="1" fill="#0a0a0a"><g transform="translate(197.407185, 76.28981)"><g><path d="M 6.015625 -7.40625 L 5.765625 -5.78125 L 3.46875 -5.78125 L 3.265625 -4.546875 L 5.4375 -4.546875 L 5.1875 -2.90625 L 3.015625 -2.90625 L 2.8125 -1.625 L 5.09375 -1.625 L 4.84375 0 L 0.625 0 L 1.796875 -7.40625 Z M 6.015625 -7.40625"/></g></g></g><g fill-opacity="1" fill="#0a0a0a"><g transform="translate(203.569383, 76.28981)"><g><path d="M 4.34375 -7.609375 C 5.132812 -7.609375 5.878906 -7.40625 6.578125 -7 L 5.578125 -5.5 C 5.222656 -5.832031 4.820312 -6 4.375 -6 C 4.132812 -6 3.914062 -5.929688 3.71875 -5.796875 C 3.53125 -5.660156 3.4375 -5.492188 3.4375 -5.296875 C 3.4375 -5.148438 3.503906 -5.019531 3.640625 -4.90625 C 3.785156 -4.800781 4.039062 -4.695312 4.40625 -4.59375 C 4.90625 -4.445312 5.265625 -4.300781 5.484375 -4.15625 C 5.703125 -4.019531 5.875 -3.847656 6 -3.640625 C 6.125 -3.429688 6.1875 -3.175781 6.1875 -2.875 C 6.1875 -2.425781 6.070312 -1.953125 5.84375 -1.453125 C 5.613281 -0.953125 5.238281 -0.554688 4.71875 -0.265625 C 4.195312 0.0234375 3.582031 0.179688 2.875 0.203125 C 1.957031 0.203125 1.128906 -0.0820312 0.390625 -0.65625 L 1.46875 -2.203125 C 1.976562 -1.691406 2.503906 -1.4375 3.046875 -1.4375 C 3.347656 -1.4375 3.601562 -1.515625 3.8125 -1.671875 C 4.019531 -1.828125 4.125 -2.023438 4.125 -2.265625 C 4.125 -2.578125 3.804688 -2.820312 3.171875 -3 C 2.410156 -3.207031 1.914062 -3.429688 1.6875 -3.671875 C 1.46875 -3.910156 1.359375 -4.226562 1.359375 -4.625 C 1.359375 -5.46875 1.644531 -6.175781 2.21875 -6.75 C 2.800781 -7.320312 3.507812 -7.609375 4.34375 -7.609375 Z M 4.34375 -7.609375"/></g></g></g></svg>